<mxfile host="65bd71144e">
    <diagram id="lWT-PNTTtKzgc7LFW3zJ" name="create promotion">
        <mxGraphModel dx="1579" dy="893" grid="1" gridSize="10" guides="1" tooltips="1" connect="1" arrows="1" fold="1" page="0" pageScale="1" pageWidth="850" pageHeight="1100" background="none" math="0" shadow="0">
            <root>
                <mxCell id="0"/>
                <mxCell id="1" parent="0"/>
                <mxCell id="41" value="status list" style="swimlane;fontStyle=0;childLayout=stackLayout;horizontal=1;startSize=26;fillColor=none;horizontalStack=0;resizeParent=1;resizeParentMax=0;resizeLast=0;collapsible=1;marginBottom=0;rounded=1;shadow=0;glass=0;sketch=1;fontFamily=Fira Code;" parent="1" vertex="1">
                    <mxGeometry x="-300" y="-140" width="140" height="156" as="geometry"/>
                </mxCell>
                <mxCell id="43" value="new" style="text;strokeColor=none;fillColor=none;align=left;verticalAlign=top;spacingLeft=4;spacingRight=4;overflow=hidden;rotatable=0;points=[[0,0.5],[1,0.5]];portConstraint=eastwest;rounded=1;shadow=0;glass=0;sketch=1;fontFamily=Fira Code;" parent="41" vertex="1">
                    <mxGeometry y="26" width="140" height="26" as="geometry"/>
                </mxCell>
                <mxCell id="45" value="published" style="text;strokeColor=none;fillColor=none;align=left;verticalAlign=top;spacingLeft=4;spacingRight=4;overflow=hidden;rotatable=0;points=[[0,0.5],[1,0.5]];portConstraint=eastwest;rounded=1;shadow=0;glass=0;sketch=1;fontFamily=Fira Code;" parent="41" vertex="1">
                    <mxGeometry y="52" width="140" height="26" as="geometry"/>
                </mxCell>
                <mxCell id="46" value="expired" style="text;strokeColor=none;fillColor=none;align=left;verticalAlign=top;spacingLeft=4;spacingRight=4;overflow=hidden;rotatable=0;points=[[0,0.5],[1,0.5]];portConstraint=eastwest;rounded=1;shadow=0;glass=0;sketch=1;fontFamily=Fira Code;" parent="41" vertex="1">
                    <mxGeometry y="78" width="140" height="26" as="geometry"/>
                </mxCell>
                <mxCell id="47" value="out of promotion" style="text;strokeColor=none;fillColor=none;align=left;verticalAlign=top;spacingLeft=4;spacingRight=4;overflow=hidden;rotatable=0;points=[[0,0.5],[1,0.5]];portConstraint=eastwest;rounded=1;shadow=0;glass=0;sketch=1;fontFamily=Fira Code;" parent="41" vertex="1">
                    <mxGeometry y="104" width="140" height="26" as="geometry"/>
                </mxCell>
                <mxCell id="48" value="cencel" style="text;strokeColor=none;fillColor=none;align=left;verticalAlign=top;spacingLeft=4;spacingRight=4;overflow=hidden;rotatable=0;points=[[0,0.5],[1,0.5]];portConstraint=eastwest;rounded=1;shadow=0;glass=0;sketch=1;fontFamily=Fira Code;" parent="41" vertex="1">
                    <mxGeometry y="130" width="140" height="26" as="geometry"/>
                </mxCell>
                <mxCell id="49" style="edgeStyle=orthogonalEdgeStyle;sketch=1;html=1;fontFamily=Fira Code;" parent="1" source="37" target="41" edge="1">
                    <mxGeometry relative="1" as="geometry"/>
                </mxCell>
                <mxCell id="69" value="condition &amp; calculation (registeration &amp; free bonus)" style="swimlane;fontStyle=0;childLayout=stackLayout;horizontal=1;startSize=26;horizontalStack=0;resizeParent=1;resizeParentMax=0;resizeLast=0;collapsible=1;marginBottom=0;align=center;fontSize=14;rounded=1;shadow=0;glass=0;sketch=1;fontFamily=Fira Code;" parent="1" vertex="1">
                    <mxGeometry x="-580" y="280" width="480" height="176" as="geometry"/>
                </mxCell>
                <mxCell id="70" value="bonus type : dropdown list (Fixed value 'Fixed')" style="text;strokeColor=none;fillColor=none;spacingLeft=4;spacingRight=4;overflow=hidden;rotatable=0;points=[[0,0.5],[1,0.5]];portConstraint=eastwest;fontSize=12;rounded=1;shadow=0;glass=0;sketch=1;fontFamily=Fira Code;" parent="69" vertex="1">
                    <mxGeometry y="26" width="480" height="30" as="geometry"/>
                </mxCell>
                <mxCell id="71" value="bonus amount : number input (min. 1)" style="text;strokeColor=none;fillColor=none;spacingLeft=4;spacingRight=4;overflow=hidden;rotatable=0;points=[[0,0.5],[1,0.5]];portConstraint=eastwest;fontSize=12;rounded=1;shadow=0;glass=0;sketch=1;fontFamily=Fira Code;" parent="69" vertex="1">
                    <mxGeometry y="56" width="480" height="30" as="geometry"/>
                </mxCell>
                <mxCell id="73" value="turnover type : dropdown list (Fixed value 'Fixed')" style="text;strokeColor=none;fillColor=none;spacingLeft=4;spacingRight=4;overflow=hidden;rotatable=0;points=[[0,0.5],[1,0.5]];portConstraint=eastwest;fontSize=12;rounded=1;shadow=0;glass=0;sketch=1;fontFamily=Fira Code;" parent="69" vertex="1">
                    <mxGeometry y="86" width="480" height="30" as="geometry"/>
                </mxCell>
                <mxCell id="74" value="turnover amount : number input (min. 1)" style="text;strokeColor=none;fillColor=none;spacingLeft=4;spacingRight=4;overflow=hidden;rotatable=0;points=[[0,0.5],[1,0.5]];portConstraint=eastwest;fontSize=12;rounded=1;shadow=0;glass=0;sketch=1;fontFamily=Fira Code;" parent="69" vertex="1">
                    <mxGeometry y="116" width="480" height="30" as="geometry"/>
                </mxCell>
                <mxCell id="75" value="withdraw limit : number input (null is disabled withdraw limit)" style="text;strokeColor=none;fillColor=none;spacingLeft=4;spacingRight=4;overflow=hidden;rotatable=0;points=[[0,0.5],[1,0.5]];portConstraint=eastwest;fontSize=12;rounded=1;shadow=0;glass=0;sketch=1;fontFamily=Fira Code;" parent="69" vertex="1">
                    <mxGeometry y="146" width="480" height="30" as="geometry"/>
                </mxCell>
                <mxCell id="76" value="condition &amp; calculation (deposit)" style="swimlane;fontStyle=0;childLayout=stackLayout;horizontal=1;startSize=26;horizontalStack=0;resizeParent=1;resizeParentMax=0;resizeLast=0;collapsible=1;marginBottom=0;align=center;fontSize=14;rounded=1;shadow=0;glass=0;sketch=1;fontFamily=Fira Code;" parent="1" vertex="1">
                    <mxGeometry x="260" y="260" width="480" height="236" as="geometry"/>
                </mxCell>
                <mxCell id="83" value="deposit from : number input (min. 1)" style="text;strokeColor=none;fillColor=none;spacingLeft=4;spacingRight=4;overflow=hidden;rotatable=0;points=[[0,0.5],[1,0.5]];portConstraint=eastwest;fontSize=12;rounded=1;shadow=0;glass=0;sketch=1;fontFamily=Fira Code;" parent="76" vertex="1">
                    <mxGeometry y="26" width="480" height="30" as="geometry"/>
                </mxCell>
                <mxCell id="84" value="deposit to : number input (min. 1)" style="text;strokeColor=none;fillColor=none;spacingLeft=4;spacingRight=4;overflow=hidden;rotatable=0;points=[[0,0.5],[1,0.5]];portConstraint=eastwest;fontSize=12;rounded=1;shadow=0;glass=0;sketch=1;fontFamily=Fira Code;" parent="76" vertex="1">
                    <mxGeometry y="56" width="480" height="30" as="geometry"/>
                </mxCell>
                <mxCell id="77" value="bonus type : dropdown list" style="text;strokeColor=none;fillColor=none;spacingLeft=4;spacingRight=4;overflow=hidden;rotatable=0;points=[[0,0.5],[1,0.5]];portConstraint=eastwest;fontSize=12;rounded=1;shadow=0;glass=0;sketch=1;fontFamily=Fira Code;" parent="76" vertex="1">
                    <mxGeometry y="86" width="480" height="30" as="geometry"/>
                </mxCell>
                <mxCell id="78" value="bonus amount : number input (min. 1)" style="text;strokeColor=none;fillColor=none;spacingLeft=4;spacingRight=4;overflow=hidden;rotatable=0;points=[[0,0.5],[1,0.5]];portConstraint=eastwest;fontSize=12;rounded=1;shadow=0;glass=0;sketch=1;fontFamily=Fira Code;" parent="76" vertex="1">
                    <mxGeometry y="116" width="480" height="30" as="geometry"/>
                </mxCell>
                <mxCell id="79" value="turnover type : dropdown list" style="text;strokeColor=none;fillColor=none;spacingLeft=4;spacingRight=4;overflow=hidden;rotatable=0;points=[[0,0.5],[1,0.5]];portConstraint=eastwest;fontSize=12;rounded=1;shadow=0;glass=0;sketch=1;fontFamily=Fira Code;" parent="76" vertex="1">
                    <mxGeometry y="146" width="480" height="30" as="geometry"/>
                </mxCell>
                <mxCell id="80" value="turnover amount : number input (min. 1)" style="text;strokeColor=none;fillColor=none;spacingLeft=4;spacingRight=4;overflow=hidden;rotatable=0;points=[[0,0.5],[1,0.5]];portConstraint=eastwest;fontSize=12;rounded=1;shadow=0;glass=0;sketch=1;fontFamily=Fira Code;" parent="76" vertex="1">
                    <mxGeometry y="176" width="480" height="30" as="geometry"/>
                </mxCell>
                <mxCell id="81" value="withdraw limit : number input (null is disabled withdraw limit)" style="text;strokeColor=none;fillColor=none;spacingLeft=4;spacingRight=4;overflow=hidden;rotatable=0;points=[[0,0.5],[1,0.5]];portConstraint=eastwest;fontSize=12;rounded=1;shadow=0;glass=0;sketch=1;fontFamily=Fira Code;" parent="76" vertex="1">
                    <mxGeometry y="206" width="480" height="30" as="geometry"/>
                </mxCell>
                <mxCell id="85" value="bonus type list" style="swimlane;fontStyle=0;childLayout=stackLayout;horizontal=1;startSize=26;fillColor=none;horizontalStack=0;resizeParent=1;resizeParentMax=0;resizeLast=0;collapsible=1;marginBottom=0;rounded=1;shadow=0;glass=0;sketch=1;fontFamily=Fira Code;" parent="1" vertex="1">
                    <mxGeometry x="20" y="282" width="140" height="78" as="geometry"/>
                </mxCell>
                <mxCell id="86" value="fixed" style="text;strokeColor=none;fillColor=none;align=left;verticalAlign=top;spacingLeft=4;spacingRight=4;overflow=hidden;rotatable=0;points=[[0,0.5],[1,0.5]];portConstraint=eastwest;rounded=1;shadow=0;glass=0;sketch=1;fontFamily=Fira Code;" parent="85" vertex="1">
                    <mxGeometry y="26" width="140" height="26" as="geometry"/>
                </mxCell>
                <mxCell id="87" value="percentage" style="text;strokeColor=none;fillColor=none;align=left;verticalAlign=top;spacingLeft=4;spacingRight=4;overflow=hidden;rotatable=0;points=[[0,0.5],[1,0.5]];portConstraint=eastwest;rounded=1;shadow=0;glass=0;sketch=1;fontFamily=Fira Code;" parent="85" vertex="1">
                    <mxGeometry y="52" width="140" height="26" as="geometry"/>
                </mxCell>
                <mxCell id="92" value="bonus type list" style="swimlane;fontStyle=0;childLayout=stackLayout;horizontal=1;startSize=26;fillColor=none;horizontalStack=0;resizeParent=1;resizeParentMax=0;resizeLast=0;collapsible=1;marginBottom=0;rounded=1;shadow=0;glass=0;sketch=1;fontFamily=Fira Code;" parent="1" vertex="1">
                    <mxGeometry x="-30" y="402" width="140" height="78" as="geometry"/>
                </mxCell>
                <mxCell id="93" value="fixed" style="text;strokeColor=none;fillColor=none;align=left;verticalAlign=top;spacingLeft=4;spacingRight=4;overflow=hidden;rotatable=0;points=[[0,0.5],[1,0.5]];portConstraint=eastwest;rounded=1;shadow=0;glass=0;sketch=1;fontFamily=Fira Code;" parent="92" vertex="1">
                    <mxGeometry y="26" width="140" height="26" as="geometry"/>
                </mxCell>
                <mxCell id="94" value="multiple" style="text;strokeColor=none;fillColor=none;align=left;verticalAlign=top;spacingLeft=4;spacingRight=4;overflow=hidden;rotatable=0;points=[[0,0.5],[1,0.5]];portConstraint=eastwest;rounded=1;shadow=0;glass=0;sketch=1;fontFamily=Fira Code;" parent="92" vertex="1">
                    <mxGeometry y="52" width="140" height="26" as="geometry"/>
                </mxCell>
                <mxCell id="95" style="edgeStyle=orthogonalEdgeStyle;sketch=1;html=1;fontFamily=Fira Code;" parent="1" source="70" target="85" edge="1">
                    <mxGeometry relative="1" as="geometry"/>
                </mxCell>
                <mxCell id="96" style="edgeStyle=orthogonalEdgeStyle;sketch=1;html=1;fontFamily=Fira Code;" parent="1" source="77" target="85" edge="1">
                    <mxGeometry relative="1" as="geometry"/>
                </mxCell>
                <mxCell id="97" style="edgeStyle=orthogonalEdgeStyle;sketch=1;html=1;fontFamily=Fira Code;" parent="1" source="79" target="92" edge="1">
                    <mxGeometry relative="1" as="geometry"/>
                </mxCell>
                <mxCell id="98" style="edgeStyle=orthogonalEdgeStyle;sketch=1;html=1;fontFamily=Fira Code;" parent="1" source="73" target="92" edge="1">
                    <mxGeometry relative="1" as="geometry"/>
                </mxCell>
                <mxCell id="99" value="Panel Element Create Promotion" style="swimlane;rounded=1;shadow=0;glass=0;sketch=1;fontFamily=Fira Code;" parent="1" vertex="1">
                    <mxGeometry x="-640" y="-270" width="1440" height="790" as="geometry"/>
                </mxCell>
                <mxCell id="19" value="normal" style="swimlane;fontStyle=0;childLayout=stackLayout;horizontal=1;startSize=26;horizontalStack=0;resizeParent=1;resizeParentMax=0;resizeLast=0;collapsible=1;marginBottom=0;align=center;fontSize=14;sketch=1;fontFamily=Fira Code;glass=0;shadow=0;rounded=1;" parent="99" vertex="1">
                    <mxGeometry x="560" y="70" width="320" height="236" as="geometry"/>
                </mxCell>
                <mxCell id="22" value="type : readonly text display" style="text;strokeColor=none;fillColor=none;spacingLeft=4;spacingRight=4;overflow=hidden;rotatable=0;points=[[0,0.5],[1,0.5]];portConstraint=eastwest;fontSize=12;sketch=1;fontFamily=Fira Code;" parent="19" vertex="1">
                    <mxGeometry y="26" width="320" height="30" as="geometry"/>
                </mxCell>
                <mxCell id="20" value="name : text input" style="text;strokeColor=none;fillColor=none;spacingLeft=4;spacingRight=4;overflow=hidden;rotatable=0;points=[[0,0.5],[1,0.5]];portConstraint=eastwest;fontSize=12;sketch=1;fontFamily=Fira Code;" parent="19" vertex="1">
                    <mxGeometry y="56" width="320" height="30" as="geometry"/>
                </mxCell>
                <mxCell id="37" value="status : dropdown list" style="text;strokeColor=none;fillColor=none;spacingLeft=4;spacingRight=4;overflow=hidden;rotatable=0;points=[[0,0.5],[1,0.5]];portConstraint=eastwest;fontSize=12;sketch=1;fontFamily=Fira Code;" parent="19" vertex="1">
                    <mxGeometry y="86" width="320" height="30" as="geometry"/>
                </mxCell>
                <mxCell id="50" value="start date : datetime picker" style="text;strokeColor=none;fillColor=none;spacingLeft=4;spacingRight=4;overflow=hidden;rotatable=0;points=[[0,0.5],[1,0.5]];portConstraint=eastwest;fontSize=12;sketch=1;fontFamily=Fira Code;" parent="19" vertex="1">
                    <mxGeometry y="116" width="320" height="30" as="geometry"/>
                </mxCell>
                <mxCell id="51" value="end date : datetime picker" style="text;strokeColor=none;fillColor=none;spacingLeft=4;spacingRight=4;overflow=hidden;rotatable=0;points=[[0,0.5],[1,0.5]];portConstraint=eastwest;fontSize=12;sketch=1;fontFamily=Fira Code;" parent="19" vertex="1">
                    <mxGeometry y="146" width="320" height="30" as="geometry"/>
                </mxCell>
                <mxCell id="21" value="detail : text editor" style="text;strokeColor=none;fillColor=none;spacingLeft=4;spacingRight=4;overflow=hidden;rotatable=0;points=[[0,0.5],[1,0.5]];portConstraint=eastwest;fontSize=12;sketch=1;fontFamily=Fira Code;" parent="19" vertex="1">
                    <mxGeometry y="176" width="320" height="30" as="geometry"/>
                </mxCell>
                <mxCell id="52" value="image : file input" style="text;strokeColor=none;fillColor=none;spacingLeft=4;spacingRight=4;overflow=hidden;rotatable=0;points=[[0,0.5],[1,0.5]];portConstraint=eastwest;fontSize=12;sketch=1;fontFamily=Fira Code;" parent="19" vertex="1">
                    <mxGeometry y="206" width="320" height="30" as="geometry"/>
                </mxCell>
                <mxCell id="64" value="receive &amp; expired" style="swimlane;fontStyle=0;childLayout=stackLayout;horizontal=1;startSize=26;horizontalStack=0;resizeParent=1;resizeParentMax=0;resizeLast=0;collapsible=1;marginBottom=0;align=center;fontSize=14;rounded=1;shadow=0;glass=0;sketch=1;fontFamily=Fira Code;" parent="99" vertex="1">
                    <mxGeometry x="480" y="350" width="420" height="116" as="geometry"/>
                </mxCell>
                <mxCell id="67" value="receive type : dropdown list" style="text;strokeColor=none;fillColor=none;spacingLeft=4;spacingRight=4;overflow=hidden;rotatable=0;points=[[0,0.5],[1,0.5]];portConstraint=eastwest;fontSize=12;rounded=1;shadow=0;glass=0;sketch=1;fontFamily=Fira Code;" parent="64" vertex="1">
                    <mxGeometry y="26" width="420" height="30" as="geometry"/>
                </mxCell>
                <mxCell id="65" value="all promotion limit : number input (null,0) = no limit" style="text;strokeColor=none;fillColor=none;spacingLeft=4;spacingRight=4;overflow=hidden;rotatable=0;points=[[0,0.5],[1,0.5]];portConstraint=eastwest;fontSize=12;rounded=1;shadow=0;glass=0;sketch=1;fontFamily=Fira Code;" parent="64" vertex="1">
                    <mxGeometry y="56" width="420" height="30" as="geometry"/>
                </mxCell>
                <mxCell id="66" value="member limit : number input (null,0) = no limit" style="text;strokeColor=none;fillColor=none;spacingLeft=4;spacingRight=4;overflow=hidden;rotatable=0;points=[[0,0.5],[1,0.5]];portConstraint=eastwest;fontSize=12;rounded=1;shadow=0;glass=0;sketch=1;fontFamily=Fira Code;" parent="64" vertex="1">
                    <mxGeometry y="86" width="420" height="30" as="geometry"/>
                </mxCell>
                <mxCell id="493" style="edgeStyle=none;html=1;" edge="1" parent="99" source="322" target="489">
                    <mxGeometry relative="1" as="geometry"/>
                </mxCell>
                <mxCell id="322" value="receive list" style="swimlane;fontStyle=0;childLayout=stackLayout;horizontal=1;startSize=26;fillColor=none;horizontalStack=0;resizeParent=1;resizeParentMax=0;resizeLast=0;collapsible=1;marginBottom=0;rounded=1;shadow=0;glass=0;sketch=1;fontFamily=Fira Code;" parent="99" vertex="1">
                    <mxGeometry x="1000" y="350" width="200" height="104" as="geometry"/>
                </mxCell>
                <mxCell id="323" value="member" style="text;strokeColor=none;fillColor=none;align=left;verticalAlign=top;spacingLeft=4;spacingRight=4;overflow=hidden;rotatable=0;points=[[0,0.5],[1,0.5]];portConstraint=eastwest;rounded=1;shadow=0;glass=0;sketch=1;fontFamily=Fira Code;" parent="322" vertex="1">
                    <mxGeometry y="26" width="200" height="26" as="geometry"/>
                </mxCell>
                <mxCell id="328" value="coupon" style="text;strokeColor=none;fillColor=none;align=left;verticalAlign=top;spacingLeft=4;spacingRight=4;overflow=hidden;rotatable=0;points=[[0,0.5],[1,0.5]];portConstraint=eastwest;rounded=1;shadow=0;glass=0;sketch=1;fontFamily=Fira Code;" parent="322" vertex="1">
                    <mxGeometry y="52" width="200" height="26" as="geometry"/>
                </mxCell>
                <mxCell id="329" value="staff only" style="text;strokeColor=none;fillColor=none;align=left;verticalAlign=top;spacingLeft=4;spacingRight=4;overflow=hidden;rotatable=0;points=[[0,0.5],[1,0.5]];portConstraint=eastwest;rounded=1;shadow=0;glass=0;sketch=1;fontFamily=Fira Code;" parent="322" vertex="1">
                    <mxGeometry y="78" width="200" height="26" as="geometry"/>
                </mxCell>
                <mxCell id="330" style="edgeStyle=orthogonalEdgeStyle;html=1;" parent="99" source="67" target="322" edge="1">
                    <mxGeometry relative="1" as="geometry"/>
                </mxCell>
                <mxCell id="482" value="receive deposit" style="swimlane;fontStyle=0;childLayout=stackLayout;horizontal=1;startSize=26;fillColor=none;horizontalStack=0;resizeParent=1;resizeParentMax=0;resizeLast=0;collapsible=1;marginBottom=0;rounded=1;shadow=0;glass=0;sketch=1;fontFamily=Fira Code;" vertex="1" parent="99">
                    <mxGeometry x="1220" y="450" width="200" height="52" as="geometry"/>
                </mxCell>
                <mxCell id="483" value="member" style="text;strokeColor=none;fillColor=none;align=left;verticalAlign=top;spacingLeft=4;spacingRight=4;overflow=hidden;rotatable=0;points=[[0,0.5],[1,0.5]];portConstraint=eastwest;rounded=1;shadow=0;glass=0;sketch=1;fontFamily=Fira Code;" vertex="1" parent="482">
                    <mxGeometry y="26" width="200" height="26" as="geometry"/>
                </mxCell>
                <mxCell id="486" value="receive free bonus" style="swimlane;fontStyle=0;childLayout=stackLayout;horizontal=1;startSize=26;fillColor=none;horizontalStack=0;resizeParent=1;resizeParentMax=0;resizeLast=0;collapsible=1;marginBottom=0;rounded=1;shadow=0;glass=0;sketch=1;fontFamily=Fira Code;" vertex="1" parent="99">
                    <mxGeometry x="1000" y="230" width="200" height="78" as="geometry"/>
                </mxCell>
                <mxCell id="488" value="coupon" style="text;strokeColor=none;fillColor=none;align=left;verticalAlign=top;spacingLeft=4;spacingRight=4;overflow=hidden;rotatable=0;points=[[0,0.5],[1,0.5]];portConstraint=eastwest;rounded=1;shadow=0;glass=0;sketch=1;fontFamily=Fira Code;" vertex="1" parent="486">
                    <mxGeometry y="26" width="200" height="26" as="geometry"/>
                </mxCell>
                <mxCell id="489" value="staff only" style="text;strokeColor=none;fillColor=none;align=left;verticalAlign=top;spacingLeft=4;spacingRight=4;overflow=hidden;rotatable=0;points=[[0,0.5],[1,0.5]];portConstraint=eastwest;rounded=1;shadow=0;glass=0;sketch=1;fontFamily=Fira Code;" vertex="1" parent="486">
                    <mxGeometry y="52" width="200" height="26" as="geometry"/>
                </mxCell>
                <mxCell id="490" value="receive registeration" style="swimlane;fontStyle=0;childLayout=stackLayout;horizontal=1;startSize=26;fillColor=none;horizontalStack=0;resizeParent=1;resizeParentMax=0;resizeLast=0;collapsible=1;marginBottom=0;rounded=1;shadow=0;glass=0;sketch=1;fontFamily=Fira Code;" vertex="1" parent="99">
                    <mxGeometry x="1220" y="230" width="200" height="78" as="geometry"/>
                </mxCell>
                <mxCell id="491" value="member" style="text;strokeColor=none;fillColor=none;align=left;verticalAlign=top;spacingLeft=4;spacingRight=4;overflow=hidden;rotatable=0;points=[[0,0.5],[1,0.5]];portConstraint=eastwest;rounded=1;shadow=0;glass=0;sketch=1;fontFamily=Fira Code;" vertex="1" parent="490">
                    <mxGeometry y="26" width="200" height="26" as="geometry"/>
                </mxCell>
                <mxCell id="492" value="coupon" style="text;strokeColor=none;fillColor=none;align=left;verticalAlign=top;spacingLeft=4;spacingRight=4;overflow=hidden;rotatable=0;points=[[0,0.5],[1,0.5]];portConstraint=eastwest;rounded=1;shadow=0;glass=0;sketch=1;fontFamily=Fira Code;" vertex="1" parent="490">
                    <mxGeometry y="52" width="200" height="26" as="geometry"/>
                </mxCell>
                <mxCell id="494" style="edgeStyle=none;html=1;exitX=1;exitY=0.5;exitDx=0;exitDy=0;" edge="1" parent="99" source="323" target="492">
                    <mxGeometry relative="1" as="geometry"/>
                </mxCell>
                <mxCell id="495" style="edgeStyle=none;html=1;entryX=0.538;entryY=-0.041;entryDx=0;entryDy=0;entryPerimeter=0;" edge="1" parent="99" target="482">
                    <mxGeometry relative="1" as="geometry">
                        <mxPoint x="1200" y="430" as="sourcePoint"/>
                    </mxGeometry>
                </mxCell>
                <mxCell id="100" value="promotion" style="shape=table;startSize=30;container=1;collapsible=1;childLayout=tableLayout;fixedRows=1;rowLines=0;fontStyle=1;align=center;resizeLast=1;rounded=1;shadow=0;glass=0;sketch=1;fontFamily=Fira Code;" parent="1" vertex="1">
                    <mxGeometry x="890" y="-274" width="280" height="640" as="geometry"/>
                </mxCell>
                <mxCell id="101" value="" style="shape=partialRectangle;collapsible=0;dropTarget=0;pointerEvents=0;fillColor=none;top=0;left=0;bottom=1;right=0;points=[[0,0.5],[1,0.5]];portConstraint=eastwest;rounded=1;shadow=0;glass=0;sketch=1;fontFamily=Fira Code;" parent="100" vertex="1">
                    <mxGeometry y="30" width="280" height="30" as="geometry"/>
                </mxCell>
                <mxCell id="102" value="PK" style="shape=partialRectangle;connectable=0;fillColor=none;top=0;left=0;bottom=0;right=0;fontStyle=1;overflow=hidden;rounded=1;shadow=0;glass=0;sketch=1;fontFamily=Fira Code;" parent="101" vertex="1">
                    <mxGeometry width="30" height="30" as="geometry">
                        <mxRectangle width="30" height="30" as="alternateBounds"/>
                    </mxGeometry>
                </mxCell>
                <mxCell id="103" value="_id" style="shape=partialRectangle;connectable=0;fillColor=none;top=0;left=0;bottom=0;right=0;align=left;spacingLeft=6;fontStyle=5;overflow=hidden;rounded=1;shadow=0;glass=0;sketch=1;fontFamily=Fira Code;" parent="101" vertex="1">
                    <mxGeometry x="30" width="250" height="30" as="geometry">
                        <mxRectangle width="250" height="30" as="alternateBounds"/>
                    </mxGeometry>
                </mxCell>
                <mxCell id="104" value="" style="shape=partialRectangle;collapsible=0;dropTarget=0;pointerEvents=0;fillColor=none;top=0;left=0;bottom=0;right=0;points=[[0,0.5],[1,0.5]];portConstraint=eastwest;rounded=1;shadow=0;glass=0;sketch=1;fontFamily=Fira Code;" parent="100" vertex="1">
                    <mxGeometry y="60" width="280" height="30" as="geometry"/>
                </mxCell>
                <mxCell id="105" value="" style="shape=partialRectangle;connectable=0;fillColor=none;top=0;left=0;bottom=0;right=0;editable=1;overflow=hidden;rounded=1;shadow=0;glass=0;sketch=1;fontFamily=Fira Code;" parent="104" vertex="1">
                    <mxGeometry width="30" height="30" as="geometry">
                        <mxRectangle width="30" height="30" as="alternateBounds"/>
                    </mxGeometry>
                </mxCell>
                <mxCell id="106" value="type : string" style="shape=partialRectangle;connectable=0;fillColor=none;top=0;left=0;bottom=0;right=0;align=left;spacingLeft=6;overflow=hidden;rounded=1;shadow=0;glass=0;sketch=1;fontFamily=Fira Code;" parent="104" vertex="1">
                    <mxGeometry x="30" width="250" height="30" as="geometry">
                        <mxRectangle width="250" height="30" as="alternateBounds"/>
                    </mxGeometry>
                </mxCell>
                <mxCell id="113" value="" style="shape=partialRectangle;collapsible=0;dropTarget=0;pointerEvents=0;fillColor=none;top=0;left=0;bottom=0;right=0;points=[[0,0.5],[1,0.5]];portConstraint=eastwest;rounded=1;shadow=0;glass=0;sketch=1;fontFamily=Fira Code;" parent="100" vertex="1">
                    <mxGeometry y="90" width="280" height="30" as="geometry"/>
                </mxCell>
                <mxCell id="114" value="" style="shape=partialRectangle;connectable=0;fillColor=none;top=0;left=0;bottom=0;right=0;editable=1;overflow=hidden;rounded=1;shadow=0;glass=0;sketch=1;fontFamily=Fira Code;" parent="113" vertex="1">
                    <mxGeometry width="30" height="30" as="geometry">
                        <mxRectangle width="30" height="30" as="alternateBounds"/>
                    </mxGeometry>
                </mxCell>
                <mxCell id="115" value="name : string" style="shape=partialRectangle;connectable=0;fillColor=none;top=0;left=0;bottom=0;right=0;align=left;spacingLeft=6;overflow=hidden;rounded=1;shadow=0;glass=0;sketch=1;fontFamily=Fira Code;" parent="113" vertex="1">
                    <mxGeometry x="30" width="250" height="30" as="geometry">
                        <mxRectangle width="250" height="30" as="alternateBounds"/>
                    </mxGeometry>
                </mxCell>
                <mxCell id="107" value="" style="shape=partialRectangle;collapsible=0;dropTarget=0;pointerEvents=0;fillColor=none;top=0;left=0;bottom=0;right=0;points=[[0,0.5],[1,0.5]];portConstraint=eastwest;rounded=1;shadow=0;glass=0;sketch=1;fontFamily=Fira Code;" parent="100" vertex="1">
                    <mxGeometry y="120" width="280" height="30" as="geometry"/>
                </mxCell>
                <mxCell id="108" value="" style="shape=partialRectangle;connectable=0;fillColor=none;top=0;left=0;bottom=0;right=0;editable=1;overflow=hidden;rounded=1;shadow=0;glass=0;sketch=1;fontFamily=Fira Code;" parent="107" vertex="1">
                    <mxGeometry width="30" height="30" as="geometry">
                        <mxRectangle width="30" height="30" as="alternateBounds"/>
                    </mxGeometry>
                </mxCell>
                <mxCell id="109" value="status : string" style="shape=partialRectangle;connectable=0;fillColor=none;top=0;left=0;bottom=0;right=0;align=left;spacingLeft=6;overflow=hidden;rounded=1;shadow=0;glass=0;sketch=1;fontFamily=Fira Code;" parent="107" vertex="1">
                    <mxGeometry x="30" width="250" height="30" as="geometry">
                        <mxRectangle width="250" height="30" as="alternateBounds"/>
                    </mxGeometry>
                </mxCell>
                <mxCell id="110" value="" style="shape=partialRectangle;collapsible=0;dropTarget=0;pointerEvents=0;fillColor=none;top=0;left=0;bottom=0;right=0;points=[[0,0.5],[1,0.5]];portConstraint=eastwest;rounded=1;shadow=0;glass=0;sketch=1;fontFamily=Fira Code;" parent="100" vertex="1">
                    <mxGeometry y="150" width="280" height="30" as="geometry"/>
                </mxCell>
                <mxCell id="111" value="" style="shape=partialRectangle;connectable=0;fillColor=none;top=0;left=0;bottom=0;right=0;editable=1;overflow=hidden;rounded=1;shadow=0;glass=0;sketch=1;fontFamily=Fira Code;" parent="110" vertex="1">
                    <mxGeometry width="30" height="30" as="geometry">
                        <mxRectangle width="30" height="30" as="alternateBounds"/>
                    </mxGeometry>
                </mxCell>
                <mxCell id="112" value="start_date : datetime" style="shape=partialRectangle;connectable=0;fillColor=none;top=0;left=0;bottom=0;right=0;align=left;spacingLeft=6;overflow=hidden;rounded=1;shadow=0;glass=0;sketch=1;fontFamily=Fira Code;" parent="110" vertex="1">
                    <mxGeometry x="30" width="250" height="30" as="geometry">
                        <mxRectangle width="250" height="30" as="alternateBounds"/>
                    </mxGeometry>
                </mxCell>
                <mxCell id="116" value="" style="shape=partialRectangle;collapsible=0;dropTarget=0;pointerEvents=0;fillColor=none;top=0;left=0;bottom=0;right=0;points=[[0,0.5],[1,0.5]];portConstraint=eastwest;rounded=1;shadow=0;glass=0;sketch=1;fontFamily=Fira Code;" parent="100" vertex="1">
                    <mxGeometry y="180" width="280" height="30" as="geometry"/>
                </mxCell>
                <mxCell id="117" value="" style="shape=partialRectangle;connectable=0;fillColor=none;top=0;left=0;bottom=0;right=0;editable=1;overflow=hidden;rounded=1;shadow=0;glass=0;sketch=1;fontFamily=Fira Code;" parent="116" vertex="1">
                    <mxGeometry width="30" height="30" as="geometry">
                        <mxRectangle width="30" height="30" as="alternateBounds"/>
                    </mxGeometry>
                </mxCell>
                <mxCell id="118" value="end_date : datetime" style="shape=partialRectangle;connectable=0;fillColor=none;top=0;left=0;bottom=0;right=0;align=left;spacingLeft=6;overflow=hidden;rounded=1;shadow=0;glass=0;sketch=1;fontFamily=Fira Code;" parent="116" vertex="1">
                    <mxGeometry x="30" width="250" height="30" as="geometry">
                        <mxRectangle width="250" height="30" as="alternateBounds"/>
                    </mxGeometry>
                </mxCell>
                <mxCell id="138" value="" style="shape=partialRectangle;collapsible=0;dropTarget=0;pointerEvents=0;fillColor=none;top=0;left=0;bottom=0;right=0;points=[[0,0.5],[1,0.5]];portConstraint=eastwest;rounded=1;shadow=0;glass=0;sketch=1;fontFamily=Fira Code;" parent="100" vertex="1">
                    <mxGeometry y="210" width="280" height="30" as="geometry"/>
                </mxCell>
                <mxCell id="139" value="" style="shape=partialRectangle;connectable=0;fillColor=none;top=0;left=0;bottom=0;right=0;editable=1;overflow=hidden;rounded=1;shadow=0;glass=0;sketch=1;fontFamily=Fira Code;" parent="138" vertex="1">
                    <mxGeometry width="30" height="30" as="geometry">
                        <mxRectangle width="30" height="30" as="alternateBounds"/>
                    </mxGeometry>
                </mxCell>
                <mxCell id="140" value="detail : string" style="shape=partialRectangle;connectable=0;fillColor=none;top=0;left=0;bottom=0;right=0;align=left;spacingLeft=6;overflow=hidden;rounded=1;shadow=0;glass=0;sketch=1;fontFamily=Fira Code;" parent="138" vertex="1">
                    <mxGeometry x="30" width="250" height="30" as="geometry">
                        <mxRectangle width="250" height="30" as="alternateBounds"/>
                    </mxGeometry>
                </mxCell>
                <mxCell id="147" value="" style="shape=partialRectangle;collapsible=0;dropTarget=0;pointerEvents=0;fillColor=none;top=0;left=0;bottom=0;right=0;points=[[0,0.5],[1,0.5]];portConstraint=eastwest;rounded=1;shadow=0;glass=0;sketch=1;fontFamily=Fira Code;" parent="100" vertex="1">
                    <mxGeometry y="240" width="280" height="30" as="geometry"/>
                </mxCell>
                <mxCell id="148" value="" style="shape=partialRectangle;connectable=0;fillColor=none;top=0;left=0;bottom=0;right=0;editable=1;overflow=hidden;rounded=1;shadow=0;glass=0;sketch=1;fontFamily=Fira Code;" parent="147" vertex="1">
                    <mxGeometry width="30" height="30" as="geometry">
                        <mxRectangle width="30" height="30" as="alternateBounds"/>
                    </mxGeometry>
                </mxCell>
                <mxCell id="149" value="image : string" style="shape=partialRectangle;connectable=0;fillColor=none;top=0;left=0;bottom=0;right=0;align=left;spacingLeft=6;overflow=hidden;rounded=1;shadow=0;glass=0;sketch=1;fontFamily=Fira Code;" parent="147" vertex="1">
                    <mxGeometry x="30" width="250" height="30" as="geometry">
                        <mxRectangle width="250" height="30" as="alternateBounds"/>
                    </mxGeometry>
                </mxCell>
                <mxCell id="150" value="" style="shape=partialRectangle;collapsible=0;dropTarget=0;pointerEvents=0;fillColor=none;top=0;left=0;bottom=0;right=0;points=[[0,0.5],[1,0.5]];portConstraint=eastwest;rounded=1;shadow=0;glass=0;sketch=1;fontFamily=Fira Code;" parent="100" vertex="1">
                    <mxGeometry y="270" width="280" height="30" as="geometry"/>
                </mxCell>
                <mxCell id="151" value="" style="shape=partialRectangle;connectable=0;fillColor=none;top=0;left=0;bottom=0;right=0;editable=1;overflow=hidden;rounded=1;shadow=0;glass=0;sketch=1;fontFamily=Fira Code;" parent="150" vertex="1">
                    <mxGeometry width="30" height="30" as="geometry">
                        <mxRectangle width="30" height="30" as="alternateBounds"/>
                    </mxGeometry>
                </mxCell>
                <mxCell id="152" value="recv_type : string" style="shape=partialRectangle;connectable=0;fillColor=none;top=0;left=0;bottom=0;right=0;align=left;spacingLeft=6;overflow=hidden;rounded=1;shadow=0;glass=0;sketch=1;fontFamily=Fira Code;" parent="150" vertex="1">
                    <mxGeometry x="30" width="250" height="30" as="geometry">
                        <mxRectangle width="250" height="30" as="alternateBounds"/>
                    </mxGeometry>
                </mxCell>
                <mxCell id="157" value="" style="shape=partialRectangle;collapsible=0;dropTarget=0;pointerEvents=0;fillColor=none;top=0;left=0;bottom=0;right=0;points=[[0,0.5],[1,0.5]];portConstraint=eastwest;rounded=1;shadow=0;glass=0;sketch=1;fontFamily=Fira Code;" parent="100" vertex="1">
                    <mxGeometry y="300" width="280" height="30" as="geometry"/>
                </mxCell>
                <mxCell id="158" value="" style="shape=partialRectangle;connectable=0;fillColor=none;top=0;left=0;bottom=0;right=0;editable=1;overflow=hidden;rounded=1;shadow=0;glass=0;sketch=1;fontFamily=Fira Code;" parent="157" vertex="1">
                    <mxGeometry width="30" height="30" as="geometry">
                        <mxRectangle width="30" height="30" as="alternateBounds"/>
                    </mxGeometry>
                </mxCell>
                <mxCell id="159" value="promotion_limit : number int" style="shape=partialRectangle;connectable=0;fillColor=none;top=0;left=0;bottom=0;right=0;align=left;spacingLeft=6;overflow=hidden;rounded=1;shadow=0;glass=0;sketch=1;fontFamily=Fira Code;" parent="157" vertex="1">
                    <mxGeometry x="30" width="250" height="30" as="geometry">
                        <mxRectangle width="250" height="30" as="alternateBounds"/>
                    </mxGeometry>
                </mxCell>
                <mxCell id="160" value="" style="shape=partialRectangle;collapsible=0;dropTarget=0;pointerEvents=0;fillColor=none;top=0;left=0;bottom=0;right=0;points=[[0,0.5],[1,0.5]];portConstraint=eastwest;rounded=1;shadow=0;glass=0;sketch=1;fontFamily=Fira Code;" parent="100" vertex="1">
                    <mxGeometry y="330" width="280" height="30" as="geometry"/>
                </mxCell>
                <mxCell id="161" value="" style="shape=partialRectangle;connectable=0;fillColor=none;top=0;left=0;bottom=0;right=0;editable=1;overflow=hidden;rounded=1;shadow=0;glass=0;sketch=1;fontFamily=Fira Code;" parent="160" vertex="1">
                    <mxGeometry width="30" height="30" as="geometry">
                        <mxRectangle width="30" height="30" as="alternateBounds"/>
                    </mxGeometry>
                </mxCell>
                <mxCell id="162" value="member_limit : number int" style="shape=partialRectangle;connectable=0;fillColor=none;top=0;left=0;bottom=0;right=0;align=left;spacingLeft=6;overflow=hidden;rounded=1;shadow=0;glass=0;sketch=1;fontFamily=Fira Code;" parent="160" vertex="1">
                    <mxGeometry x="30" width="250" height="30" as="geometry">
                        <mxRectangle width="250" height="30" as="alternateBounds"/>
                    </mxGeometry>
                </mxCell>
                <mxCell id="163" value="" style="shape=partialRectangle;collapsible=0;dropTarget=0;pointerEvents=0;fillColor=none;top=0;left=0;bottom=0;right=0;points=[[0,0.5],[1,0.5]];portConstraint=eastwest;rounded=1;shadow=0;glass=0;sketch=1;fontFamily=Fira Code;" parent="100" vertex="1">
                    <mxGeometry y="360" width="280" height="30" as="geometry"/>
                </mxCell>
                <mxCell id="164" value="" style="shape=partialRectangle;connectable=0;fillColor=none;top=0;left=0;bottom=0;right=0;editable=1;overflow=hidden;rounded=1;shadow=0;glass=0;sketch=1;fontFamily=Fira Code;" parent="163" vertex="1">
                    <mxGeometry width="30" height="30" as="geometry">
                        <mxRectangle width="30" height="30" as="alternateBounds"/>
                    </mxGeometry>
                </mxCell>
                <mxCell id="165" value="deposit_from : number double" style="shape=partialRectangle;connectable=0;fillColor=none;top=0;left=0;bottom=0;right=0;align=left;spacingLeft=6;overflow=hidden;rounded=1;shadow=0;glass=0;sketch=1;fontFamily=Fira Code;" parent="163" vertex="1">
                    <mxGeometry x="30" width="250" height="30" as="geometry">
                        <mxRectangle width="250" height="30" as="alternateBounds"/>
                    </mxGeometry>
                </mxCell>
                <mxCell id="166" value="" style="shape=partialRectangle;collapsible=0;dropTarget=0;pointerEvents=0;fillColor=none;top=0;left=0;bottom=0;right=0;points=[[0,0.5],[1,0.5]];portConstraint=eastwest;rounded=1;shadow=0;glass=0;sketch=1;fontFamily=Fira Code;" parent="100" vertex="1">
                    <mxGeometry y="390" width="280" height="30" as="geometry"/>
                </mxCell>
                <mxCell id="167" value="" style="shape=partialRectangle;connectable=0;fillColor=none;top=0;left=0;bottom=0;right=0;editable=1;overflow=hidden;rounded=1;shadow=0;glass=0;sketch=1;fontFamily=Fira Code;" parent="166" vertex="1">
                    <mxGeometry width="30" height="30" as="geometry">
                        <mxRectangle width="30" height="30" as="alternateBounds"/>
                    </mxGeometry>
                </mxCell>
                <mxCell id="168" value="deposit_to : number double" style="shape=partialRectangle;connectable=0;fillColor=none;top=0;left=0;bottom=0;right=0;align=left;spacingLeft=6;overflow=hidden;rounded=1;shadow=0;glass=0;sketch=1;fontFamily=Fira Code;" parent="166" vertex="1">
                    <mxGeometry x="30" width="250" height="30" as="geometry">
                        <mxRectangle width="250" height="30" as="alternateBounds"/>
                    </mxGeometry>
                </mxCell>
                <mxCell id="169" value="" style="shape=partialRectangle;collapsible=0;dropTarget=0;pointerEvents=0;fillColor=none;top=0;left=0;bottom=0;right=0;points=[[0,0.5],[1,0.5]];portConstraint=eastwest;rounded=1;shadow=0;glass=0;sketch=1;fontFamily=Fira Code;" parent="100" vertex="1">
                    <mxGeometry y="420" width="280" height="30" as="geometry"/>
                </mxCell>
                <mxCell id="170" value="" style="shape=partialRectangle;connectable=0;fillColor=none;top=0;left=0;bottom=0;right=0;editable=1;overflow=hidden;rounded=1;shadow=0;glass=0;sketch=1;fontFamily=Fira Code;" parent="169" vertex="1">
                    <mxGeometry width="30" height="30" as="geometry">
                        <mxRectangle width="30" height="30" as="alternateBounds"/>
                    </mxGeometry>
                </mxCell>
                <mxCell id="171" value="bonus_type : string" style="shape=partialRectangle;connectable=0;fillColor=none;top=0;left=0;bottom=0;right=0;align=left;spacingLeft=6;overflow=hidden;rounded=1;shadow=0;glass=0;sketch=1;fontFamily=Fira Code;" parent="169" vertex="1">
                    <mxGeometry x="30" width="250" height="30" as="geometry">
                        <mxRectangle width="250" height="30" as="alternateBounds"/>
                    </mxGeometry>
                </mxCell>
                <mxCell id="172" value="" style="shape=partialRectangle;collapsible=0;dropTarget=0;pointerEvents=0;fillColor=none;top=0;left=0;bottom=0;right=0;points=[[0,0.5],[1,0.5]];portConstraint=eastwest;rounded=1;shadow=0;glass=0;sketch=1;fontFamily=Fira Code;" parent="100" vertex="1">
                    <mxGeometry y="450" width="280" height="30" as="geometry"/>
                </mxCell>
                <mxCell id="173" value="" style="shape=partialRectangle;connectable=0;fillColor=none;top=0;left=0;bottom=0;right=0;editable=1;overflow=hidden;rounded=1;shadow=0;glass=0;sketch=1;fontFamily=Fira Code;" parent="172" vertex="1">
                    <mxGeometry width="30" height="30" as="geometry">
                        <mxRectangle width="30" height="30" as="alternateBounds"/>
                    </mxGeometry>
                </mxCell>
                <mxCell id="174" value="bonus_amount : number double" style="shape=partialRectangle;connectable=0;fillColor=none;top=0;left=0;bottom=0;right=0;align=left;spacingLeft=6;overflow=hidden;rounded=1;shadow=0;glass=0;sketch=1;fontFamily=Fira Code;" parent="172" vertex="1">
                    <mxGeometry x="30" width="250" height="30" as="geometry">
                        <mxRectangle width="250" height="30" as="alternateBounds"/>
                    </mxGeometry>
                </mxCell>
                <mxCell id="175" value="" style="shape=partialRectangle;collapsible=0;dropTarget=0;pointerEvents=0;fillColor=none;top=0;left=0;bottom=0;right=0;points=[[0,0.5],[1,0.5]];portConstraint=eastwest;rounded=1;shadow=0;glass=0;sketch=1;fontFamily=Fira Code;" parent="100" vertex="1">
                    <mxGeometry y="480" width="280" height="30" as="geometry"/>
                </mxCell>
                <mxCell id="176" value="" style="shape=partialRectangle;connectable=0;fillColor=none;top=0;left=0;bottom=0;right=0;editable=1;overflow=hidden;rounded=1;shadow=0;glass=0;sketch=1;fontFamily=Fira Code;" parent="175" vertex="1">
                    <mxGeometry width="30" height="30" as="geometry">
                        <mxRectangle width="30" height="30" as="alternateBounds"/>
                    </mxGeometry>
                </mxCell>
                <mxCell id="177" value="turnover_type : string" style="shape=partialRectangle;connectable=0;fillColor=none;top=0;left=0;bottom=0;right=0;align=left;spacingLeft=6;overflow=hidden;rounded=1;shadow=0;glass=0;sketch=1;fontFamily=Fira Code;" parent="175" vertex="1">
                    <mxGeometry x="30" width="250" height="30" as="geometry">
                        <mxRectangle width="250" height="30" as="alternateBounds"/>
                    </mxGeometry>
                </mxCell>
                <mxCell id="178" value="" style="shape=partialRectangle;collapsible=0;dropTarget=0;pointerEvents=0;fillColor=none;top=0;left=0;bottom=0;right=0;points=[[0,0.5],[1,0.5]];portConstraint=eastwest;rounded=1;shadow=0;glass=0;sketch=1;fontFamily=Fira Code;" parent="100" vertex="1">
                    <mxGeometry y="510" width="280" height="30" as="geometry"/>
                </mxCell>
                <mxCell id="179" value="" style="shape=partialRectangle;connectable=0;fillColor=none;top=0;left=0;bottom=0;right=0;editable=1;overflow=hidden;rounded=1;shadow=0;glass=0;sketch=1;fontFamily=Fira Code;" parent="178" vertex="1">
                    <mxGeometry width="30" height="30" as="geometry">
                        <mxRectangle width="30" height="30" as="alternateBounds"/>
                    </mxGeometry>
                </mxCell>
                <mxCell id="180" value="turnover_amount : number double" style="shape=partialRectangle;connectable=0;fillColor=none;top=0;left=0;bottom=0;right=0;align=left;spacingLeft=6;overflow=hidden;rounded=1;shadow=0;glass=0;sketch=1;fontFamily=Fira Code;" parent="178" vertex="1">
                    <mxGeometry x="30" width="250" height="30" as="geometry">
                        <mxRectangle width="250" height="30" as="alternateBounds"/>
                    </mxGeometry>
                </mxCell>
                <mxCell id="181" value="" style="shape=partialRectangle;collapsible=0;dropTarget=0;pointerEvents=0;fillColor=none;top=0;left=0;bottom=0;right=0;points=[[0,0.5],[1,0.5]];portConstraint=eastwest;rounded=1;shadow=0;glass=0;sketch=1;fontFamily=Fira Code;" parent="100" vertex="1">
                    <mxGeometry y="540" width="280" height="30" as="geometry"/>
                </mxCell>
                <mxCell id="182" value="" style="shape=partialRectangle;connectable=0;fillColor=none;top=0;left=0;bottom=0;right=0;editable=1;overflow=hidden;rounded=1;shadow=0;glass=0;sketch=1;fontFamily=Fira Code;" parent="181" vertex="1">
                    <mxGeometry width="30" height="30" as="geometry">
                        <mxRectangle width="30" height="30" as="alternateBounds"/>
                    </mxGeometry>
                </mxCell>
                <mxCell id="183" value="withdraw_limit : number double" style="shape=partialRectangle;connectable=0;fillColor=none;top=0;left=0;bottom=0;right=0;align=left;spacingLeft=6;overflow=hidden;rounded=1;shadow=0;glass=0;sketch=1;fontFamily=Fira Code;" parent="181" vertex="1">
                    <mxGeometry x="30" width="250" height="30" as="geometry">
                        <mxRectangle width="250" height="30" as="alternateBounds"/>
                    </mxGeometry>
                </mxCell>
                <mxCell id="298" value="" style="shape=partialRectangle;collapsible=0;dropTarget=0;pointerEvents=0;fillColor=none;top=0;left=0;bottom=0;right=0;points=[[0,0.5],[1,0.5]];portConstraint=eastwest;rounded=1;shadow=0;glass=0;sketch=1;fontFamily=Fira Code;" parent="100" vertex="1">
                    <mxGeometry y="570" width="280" height="30" as="geometry"/>
                </mxCell>
                <mxCell id="299" value="" style="shape=partialRectangle;connectable=0;fillColor=none;top=0;left=0;bottom=0;right=0;editable=1;overflow=hidden;rounded=1;shadow=0;glass=0;sketch=1;fontFamily=Fira Code;" parent="298" vertex="1">
                    <mxGeometry width="30" height="30" as="geometry">
                        <mxRectangle width="30" height="30" as="alternateBounds"/>
                    </mxGeometry>
                </mxCell>
                <mxCell id="300" value="agent_id : ObjectId" style="shape=partialRectangle;connectable=0;fillColor=none;top=0;left=0;bottom=0;right=0;align=left;spacingLeft=6;overflow=hidden;rounded=1;shadow=0;glass=0;sketch=1;fontFamily=Fira Code;" parent="298" vertex="1">
                    <mxGeometry x="30" width="250" height="30" as="geometry">
                        <mxRectangle width="250" height="30" as="alternateBounds"/>
                    </mxGeometry>
                </mxCell>
                <mxCell id="301" value="" style="shape=partialRectangle;collapsible=0;dropTarget=0;pointerEvents=0;fillColor=none;top=0;left=0;bottom=0;right=0;points=[[0,0.5],[1,0.5]];portConstraint=eastwest;rounded=1;shadow=0;glass=0;sketch=1;fontFamily=Fira Code;" parent="100" vertex="1">
                    <mxGeometry y="600" width="280" height="30" as="geometry"/>
                </mxCell>
                <mxCell id="302" value="" style="shape=partialRectangle;connectable=0;fillColor=none;top=0;left=0;bottom=0;right=0;editable=1;overflow=hidden;rounded=1;shadow=0;glass=0;sketch=1;fontFamily=Fira Code;" parent="301" vertex="1">
                    <mxGeometry width="30" height="30" as="geometry">
                        <mxRectangle width="30" height="30" as="alternateBounds"/>
                    </mxGeometry>
                </mxCell>
                <mxCell id="303" value="normal col. (cr_by,cr_date...)" style="shape=partialRectangle;connectable=0;fillColor=none;top=0;left=0;bottom=0;right=0;align=left;spacingLeft=6;overflow=hidden;rounded=1;shadow=0;glass=0;sketch=1;fontFamily=Fira Code;" parent="301" vertex="1">
                    <mxGeometry x="30" width="250" height="30" as="geometry">
                        <mxRectangle width="250" height="30" as="alternateBounds"/>
                    </mxGeometry>
                </mxCell>
                <mxCell id="184" value="Panel Element Search Promotion" style="swimlane;rounded=1;shadow=0;glass=0;sketch=1;fontFamily=Fira Code;" parent="1" vertex="1">
                    <mxGeometry x="-640" y="560" width="1440" height="520" as="geometry"/>
                </mxCell>
                <mxCell id="185" value="search criteria" style="swimlane;fontStyle=0;childLayout=stackLayout;horizontal=1;startSize=26;horizontalStack=0;resizeParent=1;resizeParentMax=0;resizeLast=0;collapsible=1;marginBottom=0;align=center;fontSize=14;sketch=1;fontFamily=Fira Code;glass=0;shadow=0;rounded=1;" parent="184" vertex="1">
                    <mxGeometry x="560" y="70" width="320" height="176" as="geometry"/>
                </mxCell>
                <mxCell id="187" value="name : text input" style="text;strokeColor=none;fillColor=none;spacingLeft=4;spacingRight=4;overflow=hidden;rotatable=0;points=[[0,0.5],[1,0.5]];portConstraint=eastwest;fontSize=12;sketch=1;fontFamily=Fira Code;" parent="185" vertex="1">
                    <mxGeometry y="26" width="320" height="30" as="geometry"/>
                </mxCell>
                <mxCell id="189" value="start date : datetime picker" style="text;strokeColor=none;fillColor=none;spacingLeft=4;spacingRight=4;overflow=hidden;rotatable=0;points=[[0,0.5],[1,0.5]];portConstraint=eastwest;fontSize=12;sketch=1;fontFamily=Fira Code;" parent="185" vertex="1">
                    <mxGeometry y="56" width="320" height="30" as="geometry"/>
                </mxCell>
                <mxCell id="190" value="end date : datetime picker" style="text;strokeColor=none;fillColor=none;spacingLeft=4;spacingRight=4;overflow=hidden;rotatable=0;points=[[0,0.5],[1,0.5]];portConstraint=eastwest;fontSize=12;sketch=1;fontFamily=Fira Code;" parent="185" vertex="1">
                    <mxGeometry y="86" width="320" height="30" as="geometry"/>
                </mxCell>
                <mxCell id="188" value="status : dropdown list multiple" style="text;strokeColor=none;fillColor=none;spacingLeft=4;spacingRight=4;overflow=hidden;rotatable=0;points=[[0,0.5],[1,0.5]];portConstraint=eastwest;fontSize=12;sketch=1;fontFamily=Fira Code;" parent="185" vertex="1">
                    <mxGeometry y="116" width="320" height="30" as="geometry"/>
                </mxCell>
                <mxCell id="191" value="type : dropdown list multiple" style="text;strokeColor=none;fillColor=none;spacingLeft=4;spacingRight=4;overflow=hidden;rotatable=0;points=[[0,0.5],[1,0.5]];portConstraint=eastwest;fontSize=12;sketch=1;fontFamily=Fira Code;" parent="185" vertex="1">
                    <mxGeometry y="146" width="320" height="30" as="geometry"/>
                </mxCell>
                <mxCell id="193" value="search result" style="swimlane;fontStyle=0;childLayout=stackLayout;horizontal=1;startSize=26;horizontalStack=0;resizeParent=1;resizeParentMax=0;resizeLast=0;collapsible=1;marginBottom=0;align=center;fontSize=14;sketch=1;fontFamily=Fira Code;glass=0;shadow=0;rounded=1;" parent="184" vertex="1">
                    <mxGeometry x="560" y="280" width="320" height="206" as="geometry"/>
                </mxCell>
                <mxCell id="194" value="name" style="text;strokeColor=none;fillColor=none;spacingLeft=4;spacingRight=4;overflow=hidden;rotatable=0;points=[[0,0.5],[1,0.5]];portConstraint=eastwest;fontSize=12;sketch=1;fontFamily=Fira Code;" parent="193" vertex="1">
                    <mxGeometry y="26" width="320" height="30" as="geometry"/>
                </mxCell>
                <mxCell id="195" value="status" style="text;strokeColor=none;fillColor=none;spacingLeft=4;spacingRight=4;overflow=hidden;rotatable=0;points=[[0,0.5],[1,0.5]];portConstraint=eastwest;fontSize=12;sketch=1;fontFamily=Fira Code;" parent="193" vertex="1">
                    <mxGeometry y="56" width="320" height="30" as="geometry"/>
                </mxCell>
                <mxCell id="196" value="action" style="text;strokeColor=none;fillColor=none;spacingLeft=4;spacingRight=4;overflow=hidden;rotatable=0;points=[[0,0.5],[1,0.5]];portConstraint=eastwest;fontSize=12;sketch=1;fontFamily=Fira Code;" parent="193" vertex="1">
                    <mxGeometry y="86" width="320" height="30" as="geometry"/>
                </mxCell>
                <mxCell id="197" value="action 1 : view detail + edit" style="text;strokeColor=none;fillColor=none;spacingLeft=4;spacingRight=4;overflow=hidden;rotatable=0;points=[[0,0.5],[1,0.5]];portConstraint=eastwest;fontSize=12;sketch=1;fontFamily=Fira Code;" parent="193" vertex="1">
                    <mxGeometry y="116" width="320" height="30" as="geometry"/>
                </mxCell>
                <mxCell id="198" value="action 2 : coupon generator" style="text;strokeColor=none;fillColor=none;spacingLeft=4;spacingRight=4;overflow=hidden;rotatable=0;points=[[0,0.5],[1,0.5]];portConstraint=eastwest;fontSize=12;sketch=1;fontFamily=Fira Code;" parent="193" vertex="1">
                    <mxGeometry y="146" width="320" height="30" as="geometry"/>
                </mxCell>
                <mxCell id="200" value="action 3 : coupon history" style="text;strokeColor=none;fillColor=none;spacingLeft=4;spacingRight=4;overflow=hidden;rotatable=0;points=[[0,0.5],[1,0.5]];portConstraint=eastwest;fontSize=12;sketch=1;fontFamily=Fira Code;" parent="193" vertex="1">
                    <mxGeometry y="176" width="320" height="30" as="geometry"/>
                </mxCell>
                <mxCell id="316" value="modal coupon generation" style="swimlane;fontStyle=0;childLayout=stackLayout;horizontal=1;startSize=26;horizontalStack=0;resizeParent=1;resizeParentMax=0;resizeLast=0;collapsible=1;marginBottom=0;align=center;fontSize=14;sketch=1;fontFamily=Fira Code;glass=0;shadow=0;rounded=1;" parent="184" vertex="1">
                    <mxGeometry x="1000" y="280" width="320" height="176" as="geometry"/>
                </mxCell>
                <mxCell id="317" value="name : display only" style="text;strokeColor=none;fillColor=none;spacingLeft=4;spacingRight=4;overflow=hidden;rotatable=0;points=[[0,0.5],[1,0.5]];portConstraint=eastwest;fontSize=12;sketch=1;fontFamily=Fira Code;" parent="316" vertex="1">
                    <mxGeometry y="26" width="320" height="30" as="geometry"/>
                </mxCell>
                <mxCell id="318" value="limit : display only" style="text;strokeColor=none;fillColor=none;spacingLeft=4;spacingRight=4;overflow=hidden;rotatable=0;points=[[0,0.5],[1,0.5]];portConstraint=eastwest;fontSize=12;sketch=1;fontFamily=Fira Code;" parent="316" vertex="1">
                    <mxGeometry y="56" width="320" height="30" as="geometry"/>
                </mxCell>
                <mxCell id="319" value="amount : number input (max = limit)" style="text;strokeColor=none;fillColor=none;spacingLeft=4;spacingRight=4;overflow=hidden;rotatable=0;points=[[0,0.5],[1,0.5]];portConstraint=eastwest;fontSize=12;sketch=1;fontFamily=Fira Code;" parent="316" vertex="1">
                    <mxGeometry y="86" width="320" height="30" as="geometry"/>
                </mxCell>
                <mxCell id="320" value="sender : text input" style="text;strokeColor=none;fillColor=none;spacingLeft=4;spacingRight=4;overflow=hidden;rotatable=0;points=[[0,0.5],[1,0.5]];portConstraint=eastwest;fontSize=12;sketch=1;fontFamily=Fira Code;" parent="316" vertex="1">
                    <mxGeometry y="116" width="320" height="30" as="geometry"/>
                </mxCell>
                <mxCell id="321" value="remark : textarea" style="text;strokeColor=none;fillColor=none;spacingLeft=4;spacingRight=4;overflow=hidden;rotatable=0;points=[[0,0.5],[1,0.5]];portConstraint=eastwest;fontSize=12;sketch=1;fontFamily=Fira Code;" parent="316" vertex="1">
                    <mxGeometry y="146" width="320" height="30" as="geometry"/>
                </mxCell>
                <mxCell id="333" value="" style="edgeStyle=orthogonalEdgeStyle;html=1;fontFamily=Fira Code;" parent="184" source="331" target="332" edge="1">
                    <mxGeometry relative="1" as="geometry"/>
                </mxCell>
                <mxCell id="331" value="Create promotion" style="rounded=1;whiteSpace=wrap;html=1;fontFamily=Fira Code;" parent="184" vertex="1">
                    <mxGeometry x="190" y="130" width="120" height="60" as="geometry"/>
                </mxCell>
                <mxCell id="335" value="" style="edgeStyle=orthogonalEdgeStyle;html=1;fontFamily=Fira Code;" parent="184" source="332" target="334" edge="1">
                    <mxGeometry relative="1" as="geometry"/>
                </mxCell>
                <mxCell id="337" value="" style="edgeStyle=orthogonalEdgeStyle;html=1;fontFamily=Fira Code;" parent="184" source="332" target="336" edge="1">
                    <mxGeometry relative="1" as="geometry"/>
                </mxCell>
                <mxCell id="339" value="" style="edgeStyle=orthogonalEdgeStyle;html=1;fontFamily=Fira Code;" parent="184" source="332" target="338" edge="1">
                    <mxGeometry relative="1" as="geometry">
                        <mxPoint x="160.00000000000023" y="299" as="targetPoint"/>
                    </mxGeometry>
                </mxCell>
                <mxCell id="332" value="type" style="rhombus;whiteSpace=wrap;html=1;fontFamily=Fira Code;rounded=1;" parent="184" vertex="1">
                    <mxGeometry x="210" y="235" width="80" height="80" as="geometry"/>
                </mxCell>
                <mxCell id="334" value="registeration" style="whiteSpace=wrap;html=1;fontFamily=Fira Code;rounded=1;" parent="184" vertex="1">
                    <mxGeometry x="350" y="245" width="120" height="60" as="geometry"/>
                </mxCell>
                <mxCell id="336" value="deposit" style="whiteSpace=wrap;html=1;fontFamily=Fira Code;rounded=1;" parent="184" vertex="1">
                    <mxGeometry x="190" y="405" width="120" height="60" as="geometry"/>
                </mxCell>
                <mxCell id="338" value="free bonus" style="whiteSpace=wrap;html=1;fontFamily=Fira Code;rounded=1;" parent="184" vertex="1">
                    <mxGeometry x="40" y="245" width="120" height="60" as="geometry"/>
                </mxCell>
                <mxCell id="340" style="edgeStyle=none;html=1;" parent="184" source="198" target="316" edge="1">
                    <mxGeometry relative="1" as="geometry"/>
                </mxCell>
                <mxCell id="201" value="privilege" style="shape=table;startSize=30;container=1;collapsible=1;childLayout=tableLayout;fixedRows=1;rowLines=0;fontStyle=1;align=center;resizeLast=1;rounded=1;shadow=0;glass=0;sketch=1;fontFamily=Fira Code;" parent="1" vertex="1">
                    <mxGeometry x="880" y="480" width="280" height="370" as="geometry"/>
                </mxCell>
                <mxCell id="202" value="" style="shape=partialRectangle;collapsible=0;dropTarget=0;pointerEvents=0;fillColor=none;top=0;left=0;bottom=1;right=0;points=[[0,0.5],[1,0.5]];portConstraint=eastwest;rounded=1;shadow=0;glass=0;sketch=1;fontFamily=Fira Code;" parent="201" vertex="1">
                    <mxGeometry y="30" width="280" height="30" as="geometry"/>
                </mxCell>
                <mxCell id="203" value="PK" style="shape=partialRectangle;connectable=0;fillColor=none;top=0;left=0;bottom=0;right=0;fontStyle=1;overflow=hidden;rounded=1;shadow=0;glass=0;sketch=1;fontFamily=Fira Code;" parent="202" vertex="1">
                    <mxGeometry width="30" height="30" as="geometry">
                        <mxRectangle width="30" height="30" as="alternateBounds"/>
                    </mxGeometry>
                </mxCell>
                <mxCell id="204" value="_id" style="shape=partialRectangle;connectable=0;fillColor=none;top=0;left=0;bottom=0;right=0;align=left;spacingLeft=6;fontStyle=5;overflow=hidden;rounded=1;shadow=0;glass=0;sketch=1;fontFamily=Fira Code;" parent="202" vertex="1">
                    <mxGeometry x="30" width="250" height="30" as="geometry">
                        <mxRectangle width="250" height="30" as="alternateBounds"/>
                    </mxGeometry>
                </mxCell>
                <mxCell id="205" value="" style="shape=partialRectangle;collapsible=0;dropTarget=0;pointerEvents=0;fillColor=none;top=0;left=0;bottom=0;right=0;points=[[0,0.5],[1,0.5]];portConstraint=eastwest;rounded=1;shadow=0;glass=0;sketch=1;fontFamily=Fira Code;" parent="201" vertex="1">
                    <mxGeometry y="60" width="280" height="30" as="geometry"/>
                </mxCell>
                <mxCell id="206" value="FK" style="shape=partialRectangle;connectable=0;fillColor=none;top=0;left=0;bottom=0;right=0;editable=1;overflow=hidden;rounded=1;shadow=0;glass=0;sketch=1;fontFamily=Fira Code;" parent="205" vertex="1">
                    <mxGeometry width="30" height="30" as="geometry">
                        <mxRectangle width="30" height="30" as="alternateBounds"/>
                    </mxGeometry>
                </mxCell>
                <mxCell id="207" value="pro_id : ObjectId" style="shape=partialRectangle;connectable=0;fillColor=none;top=0;left=0;bottom=0;right=0;align=left;spacingLeft=6;overflow=hidden;rounded=1;shadow=0;glass=0;sketch=1;fontFamily=Fira Code;" parent="205" vertex="1">
                    <mxGeometry x="30" width="250" height="30" as="geometry">
                        <mxRectangle width="250" height="30" as="alternateBounds"/>
                    </mxGeometry>
                </mxCell>
                <mxCell id="263" value="" style="shape=partialRectangle;collapsible=0;dropTarget=0;pointerEvents=0;fillColor=none;top=0;left=0;bottom=0;right=0;points=[[0,0.5],[1,0.5]];portConstraint=eastwest;rounded=1;shadow=0;glass=0;sketch=1;fontFamily=Fira Code;" parent="201" vertex="1">
                    <mxGeometry y="90" width="280" height="30" as="geometry"/>
                </mxCell>
                <mxCell id="264" value="FK" style="shape=partialRectangle;connectable=0;fillColor=none;top=0;left=0;bottom=0;right=0;editable=1;overflow=hidden;rounded=1;shadow=0;glass=0;sketch=1;fontFamily=Fira Code;" parent="263" vertex="1">
                    <mxGeometry width="30" height="30" as="geometry">
                        <mxRectangle width="30" height="30" as="alternateBounds"/>
                    </mxGeometry>
                </mxCell>
                <mxCell id="265" value="request_id : ObjectId" style="shape=partialRectangle;connectable=0;fillColor=none;top=0;left=0;bottom=0;right=0;align=left;spacingLeft=6;overflow=hidden;rounded=1;shadow=0;glass=0;sketch=1;fontFamily=Fira Code;" parent="263" vertex="1">
                    <mxGeometry x="30" width="250" height="30" as="geometry">
                        <mxRectangle width="250" height="30" as="alternateBounds"/>
                    </mxGeometry>
                </mxCell>
                <mxCell id="208" value="" style="shape=partialRectangle;collapsible=0;dropTarget=0;pointerEvents=0;fillColor=none;top=0;left=0;bottom=0;right=0;points=[[0,0.5],[1,0.5]];portConstraint=eastwest;rounded=1;shadow=0;glass=0;sketch=1;fontFamily=Fira Code;" parent="201" vertex="1">
                    <mxGeometry y="120" width="280" height="30" as="geometry"/>
                </mxCell>
                <mxCell id="209" value="" style="shape=partialRectangle;connectable=0;fillColor=none;top=0;left=0;bottom=0;right=0;editable=1;overflow=hidden;rounded=1;shadow=0;glass=0;sketch=1;fontFamily=Fira Code;" parent="208" vertex="1">
                    <mxGeometry width="30" height="30" as="geometry">
                        <mxRectangle width="30" height="30" as="alternateBounds"/>
                    </mxGeometry>
                </mxCell>
                <mxCell id="210" value="memb_id : ObjectId" style="shape=partialRectangle;connectable=0;fillColor=none;top=0;left=0;bottom=0;right=0;align=left;spacingLeft=6;overflow=hidden;rounded=1;shadow=0;glass=0;sketch=1;fontFamily=Fira Code;" parent="208" vertex="1">
                    <mxGeometry x="30" width="250" height="30" as="geometry">
                        <mxRectangle width="250" height="30" as="alternateBounds"/>
                    </mxGeometry>
                </mxCell>
                <mxCell id="211" value="" style="shape=partialRectangle;collapsible=0;dropTarget=0;pointerEvents=0;fillColor=none;top=0;left=0;bottom=0;right=0;points=[[0,0.5],[1,0.5]];portConstraint=eastwest;rounded=1;shadow=0;glass=0;sketch=1;fontFamily=Fira Code;" parent="201" vertex="1">
                    <mxGeometry y="150" width="280" height="30" as="geometry"/>
                </mxCell>
                <mxCell id="212" value="" style="shape=partialRectangle;connectable=0;fillColor=none;top=0;left=0;bottom=0;right=0;editable=1;overflow=hidden;rounded=1;shadow=0;glass=0;sketch=1;fontFamily=Fira Code;" parent="211" vertex="1">
                    <mxGeometry width="30" height="30" as="geometry">
                        <mxRectangle width="30" height="30" as="alternateBounds"/>
                    </mxGeometry>
                </mxCell>
                <mxCell id="213" value="status : string" style="shape=partialRectangle;connectable=0;fillColor=none;top=0;left=0;bottom=0;right=0;align=left;spacingLeft=6;overflow=hidden;rounded=1;shadow=0;glass=0;sketch=1;fontFamily=Fira Code;" parent="211" vertex="1">
                    <mxGeometry x="30" width="250" height="30" as="geometry">
                        <mxRectangle width="250" height="30" as="alternateBounds"/>
                    </mxGeometry>
                </mxCell>
                <mxCell id="214" value="" style="shape=partialRectangle;collapsible=0;dropTarget=0;pointerEvents=0;fillColor=none;top=0;left=0;bottom=0;right=0;points=[[0,0.5],[1,0.5]];portConstraint=eastwest;rounded=1;shadow=0;glass=0;sketch=1;fontFamily=Fira Code;" parent="201" vertex="1">
                    <mxGeometry y="180" width="280" height="30" as="geometry"/>
                </mxCell>
                <mxCell id="215" value="" style="shape=partialRectangle;connectable=0;fillColor=none;top=0;left=0;bottom=0;right=0;editable=1;overflow=hidden;rounded=1;shadow=0;glass=0;sketch=1;fontFamily=Fira Code;" parent="214" vertex="1">
                    <mxGeometry width="30" height="30" as="geometry">
                        <mxRectangle width="30" height="30" as="alternateBounds"/>
                    </mxGeometry>
                </mxCell>
                <mxCell id="216" value="bonus_amt : number double" style="shape=partialRectangle;connectable=0;fillColor=none;top=0;left=0;bottom=0;right=0;align=left;spacingLeft=6;overflow=hidden;rounded=1;shadow=0;glass=0;sketch=1;fontFamily=Fira Code;" parent="214" vertex="1">
                    <mxGeometry x="30" width="250" height="30" as="geometry">
                        <mxRectangle width="250" height="30" as="alternateBounds"/>
                    </mxGeometry>
                </mxCell>
                <mxCell id="217" value="" style="shape=partialRectangle;collapsible=0;dropTarget=0;pointerEvents=0;fillColor=none;top=0;left=0;bottom=0;right=0;points=[[0,0.5],[1,0.5]];portConstraint=eastwest;rounded=1;shadow=0;glass=0;sketch=1;fontFamily=Fira Code;" parent="201" vertex="1">
                    <mxGeometry y="210" width="280" height="30" as="geometry"/>
                </mxCell>
                <mxCell id="218" value="" style="shape=partialRectangle;connectable=0;fillColor=none;top=0;left=0;bottom=0;right=0;editable=1;overflow=hidden;rounded=1;shadow=0;glass=0;sketch=1;fontFamily=Fira Code;" parent="217" vertex="1">
                    <mxGeometry width="30" height="30" as="geometry">
                        <mxRectangle width="30" height="30" as="alternateBounds"/>
                    </mxGeometry>
                </mxCell>
                <mxCell id="219" value="turnover_amt : number double" style="shape=partialRectangle;connectable=0;fillColor=none;top=0;left=0;bottom=0;right=0;align=left;spacingLeft=6;overflow=hidden;rounded=1;shadow=0;glass=0;sketch=1;fontFamily=Fira Code;" parent="217" vertex="1">
                    <mxGeometry x="30" width="250" height="30" as="geometry">
                        <mxRectangle width="250" height="30" as="alternateBounds"/>
                    </mxGeometry>
                </mxCell>
                <mxCell id="266" value="" style="shape=partialRectangle;collapsible=0;dropTarget=0;pointerEvents=0;fillColor=none;top=0;left=0;bottom=0;right=0;points=[[0,0.5],[1,0.5]];portConstraint=eastwest;rounded=1;shadow=0;glass=0;sketch=1;fontFamily=Fira Code;" parent="201" vertex="1">
                    <mxGeometry y="240" width="280" height="30" as="geometry"/>
                </mxCell>
                <mxCell id="267" value="" style="shape=partialRectangle;connectable=0;fillColor=none;top=0;left=0;bottom=0;right=0;editable=1;overflow=hidden;rounded=1;shadow=0;glass=0;sketch=1;fontFamily=Fira Code;" parent="266" vertex="1">
                    <mxGeometry width="30" height="30" as="geometry">
                        <mxRectangle width="30" height="30" as="alternateBounds"/>
                    </mxGeometry>
                </mxCell>
                <mxCell id="268" value="withdraw_limit : number double" style="shape=partialRectangle;connectable=0;fillColor=none;top=0;left=0;bottom=0;right=0;align=left;spacingLeft=6;overflow=hidden;rounded=1;shadow=0;glass=0;sketch=1;fontFamily=Fira Code;" parent="266" vertex="1">
                    <mxGeometry x="30" width="250" height="30" as="geometry">
                        <mxRectangle width="250" height="30" as="alternateBounds"/>
                    </mxGeometry>
                </mxCell>
                <mxCell id="220" value="" style="shape=partialRectangle;collapsible=0;dropTarget=0;pointerEvents=0;fillColor=none;top=0;left=0;bottom=0;right=0;points=[[0,0.5],[1,0.5]];portConstraint=eastwest;rounded=1;shadow=0;glass=0;sketch=1;fontFamily=Fira Code;" parent="201" vertex="1">
                    <mxGeometry y="270" width="280" height="30" as="geometry"/>
                </mxCell>
                <mxCell id="221" value="" style="shape=partialRectangle;connectable=0;fillColor=none;top=0;left=0;bottom=0;right=0;editable=1;overflow=hidden;rounded=1;shadow=0;glass=0;sketch=1;fontFamily=Fira Code;" parent="220" vertex="1">
                    <mxGeometry width="30" height="30" as="geometry">
                        <mxRectangle width="30" height="30" as="alternateBounds"/>
                    </mxGeometry>
                </mxCell>
                <mxCell id="222" value="withdraw_amt : number double" style="shape=partialRectangle;connectable=0;fillColor=none;top=0;left=0;bottom=0;right=0;align=left;spacingLeft=6;overflow=hidden;rounded=1;shadow=0;glass=0;sketch=1;fontFamily=Fira Code;" parent="220" vertex="1">
                    <mxGeometry x="30" width="250" height="30" as="geometry">
                        <mxRectangle width="250" height="30" as="alternateBounds"/>
                    </mxGeometry>
                </mxCell>
                <mxCell id="307" value="" style="shape=partialRectangle;collapsible=0;dropTarget=0;pointerEvents=0;fillColor=none;top=0;left=0;bottom=0;right=0;points=[[0,0.5],[1,0.5]];portConstraint=eastwest;rounded=1;shadow=0;glass=0;sketch=1;fontFamily=Fira Code;" parent="201" vertex="1">
                    <mxGeometry y="300" width="280" height="30" as="geometry"/>
                </mxCell>
                <mxCell id="308" value="" style="shape=partialRectangle;connectable=0;fillColor=none;top=0;left=0;bottom=0;right=0;editable=1;overflow=hidden;rounded=1;shadow=0;glass=0;sketch=1;fontFamily=Fira Code;" parent="307" vertex="1">
                    <mxGeometry width="30" height="30" as="geometry">
                        <mxRectangle width="30" height="30" as="alternateBounds"/>
                    </mxGeometry>
                </mxCell>
                <mxCell id="309" value="agent_id : ObjectId" style="shape=partialRectangle;connectable=0;fillColor=none;top=0;left=0;bottom=0;right=0;align=left;spacingLeft=6;overflow=hidden;rounded=1;shadow=0;glass=0;sketch=1;fontFamily=Fira Code;" parent="307" vertex="1">
                    <mxGeometry x="30" width="250" height="30" as="geometry">
                        <mxRectangle width="250" height="30" as="alternateBounds"/>
                    </mxGeometry>
                </mxCell>
                <mxCell id="304" value="" style="shape=partialRectangle;collapsible=0;dropTarget=0;pointerEvents=0;fillColor=none;top=0;left=0;bottom=0;right=0;points=[[0,0.5],[1,0.5]];portConstraint=eastwest;rounded=1;shadow=0;glass=0;sketch=1;fontFamily=Fira Code;" parent="201" vertex="1">
                    <mxGeometry y="330" width="280" height="30" as="geometry"/>
                </mxCell>
                <mxCell id="305" value="" style="shape=partialRectangle;connectable=0;fillColor=none;top=0;left=0;bottom=0;right=0;editable=1;overflow=hidden;rounded=1;shadow=0;glass=0;sketch=1;fontFamily=Fira Code;" parent="304" vertex="1">
                    <mxGeometry width="30" height="30" as="geometry">
                        <mxRectangle width="30" height="30" as="alternateBounds"/>
                    </mxGeometry>
                </mxCell>
                <mxCell id="306" value="normal col. (cr_by,cr_date...)" style="shape=partialRectangle;connectable=0;fillColor=none;top=0;left=0;bottom=0;right=0;align=left;spacingLeft=6;overflow=hidden;rounded=1;shadow=0;glass=0;sketch=1;fontFamily=Fira Code;" parent="304" vertex="1">
                    <mxGeometry x="30" width="250" height="30" as="geometry">
                        <mxRectangle width="250" height="30" as="alternateBounds"/>
                    </mxGeometry>
                </mxCell>
                <mxCell id="262" style="edgeStyle=orthogonalEdgeStyle;sketch=1;html=1;fontFamily=Fira Code;" parent="1" source="205" target="101" edge="1">
                    <mxGeometry relative="1" as="geometry">
                        <Array as="points">
                            <mxPoint x="1240" y="555"/>
                            <mxPoint x="1240" y="-229"/>
                        </Array>
                    </mxGeometry>
                </mxCell>
                <mxCell id="269" value="coupon_request" style="shape=table;startSize=30;container=1;collapsible=1;childLayout=tableLayout;fixedRows=1;rowLines=0;fontStyle=1;align=center;resizeLast=1;rounded=1;shadow=0;glass=0;sketch=1;fontFamily=Fira Code;" parent="1" vertex="1">
                    <mxGeometry x="1320" y="560" width="280" height="370" as="geometry"/>
                </mxCell>
                <mxCell id="270" value="" style="shape=partialRectangle;collapsible=0;dropTarget=0;pointerEvents=0;fillColor=none;top=0;left=0;bottom=1;right=0;points=[[0,0.5],[1,0.5]];portConstraint=eastwest;rounded=1;shadow=0;glass=0;sketch=1;fontFamily=Fira Code;" parent="269" vertex="1">
                    <mxGeometry y="30" width="280" height="30" as="geometry"/>
                </mxCell>
                <mxCell id="271" value="PK" style="shape=partialRectangle;connectable=0;fillColor=none;top=0;left=0;bottom=0;right=0;fontStyle=1;overflow=hidden;rounded=1;shadow=0;glass=0;sketch=1;fontFamily=Fira Code;" parent="270" vertex="1">
                    <mxGeometry width="30" height="30" as="geometry">
                        <mxRectangle width="30" height="30" as="alternateBounds"/>
                    </mxGeometry>
                </mxCell>
                <mxCell id="272" value="_id" style="shape=partialRectangle;connectable=0;fillColor=none;top=0;left=0;bottom=0;right=0;align=left;spacingLeft=6;fontStyle=5;overflow=hidden;rounded=1;shadow=0;glass=0;sketch=1;fontFamily=Fira Code;" parent="270" vertex="1">
                    <mxGeometry x="30" width="250" height="30" as="geometry">
                        <mxRectangle width="250" height="30" as="alternateBounds"/>
                    </mxGeometry>
                </mxCell>
                <mxCell id="273" value="" style="shape=partialRectangle;collapsible=0;dropTarget=0;pointerEvents=0;fillColor=none;top=0;left=0;bottom=0;right=0;points=[[0,0.5],[1,0.5]];portConstraint=eastwest;rounded=1;shadow=0;glass=0;sketch=1;fontFamily=Fira Code;" parent="269" vertex="1">
                    <mxGeometry y="60" width="280" height="30" as="geometry"/>
                </mxCell>
                <mxCell id="274" value="FK" style="shape=partialRectangle;connectable=0;fillColor=none;top=0;left=0;bottom=0;right=0;editable=1;overflow=hidden;rounded=1;shadow=0;glass=0;sketch=1;fontFamily=Fira Code;" parent="273" vertex="1">
                    <mxGeometry width="30" height="30" as="geometry">
                        <mxRectangle width="30" height="30" as="alternateBounds"/>
                    </mxGeometry>
                </mxCell>
                <mxCell id="275" value="pro_id : ObjectId" style="shape=partialRectangle;connectable=0;fillColor=none;top=0;left=0;bottom=0;right=0;align=left;spacingLeft=6;overflow=hidden;rounded=1;shadow=0;glass=0;sketch=1;fontFamily=Fira Code;" parent="273" vertex="1">
                    <mxGeometry x="30" width="250" height="30" as="geometry">
                        <mxRectangle width="250" height="30" as="alternateBounds"/>
                    </mxGeometry>
                </mxCell>
                <mxCell id="476" value="" style="shape=partialRectangle;collapsible=0;dropTarget=0;pointerEvents=0;fillColor=none;top=0;left=0;bottom=0;right=0;points=[[0,0.5],[1,0.5]];portConstraint=eastwest;rounded=1;shadow=0;glass=0;sketch=1;fontFamily=Fira Code;" vertex="1" parent="269">
                    <mxGeometry y="90" width="280" height="30" as="geometry"/>
                </mxCell>
                <mxCell id="477" value="" style="shape=partialRectangle;connectable=0;fillColor=none;top=0;left=0;bottom=0;right=0;editable=1;overflow=hidden;rounded=1;shadow=0;glass=0;sketch=1;fontFamily=Fira Code;" vertex="1" parent="476">
                    <mxGeometry width="30" height="30" as="geometry">
                        <mxRectangle width="30" height="30" as="alternateBounds"/>
                    </mxGeometry>
                </mxCell>
                <mxCell id="478" value="type: string" style="shape=partialRectangle;connectable=0;fillColor=none;top=0;left=0;bottom=0;right=0;align=left;spacingLeft=6;overflow=hidden;rounded=1;shadow=0;glass=0;sketch=1;fontFamily=Fira Code;" vertex="1" parent="476">
                    <mxGeometry x="30" width="250" height="30" as="geometry">
                        <mxRectangle width="250" height="30" as="alternateBounds"/>
                    </mxGeometry>
                </mxCell>
                <mxCell id="479" value="" style="shape=partialRectangle;collapsible=0;dropTarget=0;pointerEvents=0;fillColor=none;top=0;left=0;bottom=0;right=0;points=[[0,0.5],[1,0.5]];portConstraint=eastwest;rounded=1;shadow=0;glass=0;sketch=1;fontFamily=Fira Code;" vertex="1" parent="269">
                    <mxGeometry y="120" width="280" height="30" as="geometry"/>
                </mxCell>
                <mxCell id="480" value="" style="shape=partialRectangle;connectable=0;fillColor=none;top=0;left=0;bottom=0;right=0;editable=1;overflow=hidden;rounded=1;shadow=0;glass=0;sketch=1;fontFamily=Fira Code;" vertex="1" parent="479">
                    <mxGeometry width="30" height="30" as="geometry">
                        <mxRectangle width="30" height="30" as="alternateBounds"/>
                    </mxGeometry>
                </mxCell>
                <mxCell id="481" value="coupon_code : " style="shape=partialRectangle;connectable=0;fillColor=none;top=0;left=0;bottom=0;right=0;align=left;spacingLeft=6;overflow=hidden;rounded=1;shadow=0;glass=0;sketch=1;fontFamily=Fira Code;" vertex="1" parent="479">
                    <mxGeometry x="30" width="250" height="30" as="geometry">
                        <mxRectangle width="250" height="30" as="alternateBounds"/>
                    </mxGeometry>
                </mxCell>
                <mxCell id="279" value="" style="shape=partialRectangle;collapsible=0;dropTarget=0;pointerEvents=0;fillColor=none;top=0;left=0;bottom=0;right=0;points=[[0,0.5],[1,0.5]];portConstraint=eastwest;rounded=1;shadow=0;glass=0;sketch=1;fontFamily=Fira Code;" parent="269" vertex="1">
                    <mxGeometry y="150" width="280" height="30" as="geometry"/>
                </mxCell>
                <mxCell id="280" value="" style="shape=partialRectangle;connectable=0;fillColor=none;top=0;left=0;bottom=0;right=0;editable=1;overflow=hidden;rounded=1;shadow=0;glass=0;sketch=1;fontFamily=Fira Code;" parent="279" vertex="1">
                    <mxGeometry width="30" height="30" as="geometry">
                        <mxRectangle width="30" height="30" as="alternateBounds"/>
                    </mxGeometry>
                </mxCell>
                <mxCell id="281" value="staff_id : ObjectId" style="shape=partialRectangle;connectable=0;fillColor=none;top=0;left=0;bottom=0;right=0;align=left;spacingLeft=6;overflow=hidden;rounded=1;shadow=0;glass=0;sketch=1;fontFamily=Fira Code;" parent="279" vertex="1">
                    <mxGeometry x="30" width="250" height="30" as="geometry">
                        <mxRectangle width="250" height="30" as="alternateBounds"/>
                    </mxGeometry>
                </mxCell>
                <mxCell id="282" value="" style="shape=partialRectangle;collapsible=0;dropTarget=0;pointerEvents=0;fillColor=none;top=0;left=0;bottom=0;right=0;points=[[0,0.5],[1,0.5]];portConstraint=eastwest;rounded=1;shadow=0;glass=0;sketch=1;fontFamily=Fira Code;" parent="269" vertex="1">
                    <mxGeometry y="180" width="280" height="30" as="geometry"/>
                </mxCell>
                <mxCell id="283" value="" style="shape=partialRectangle;connectable=0;fillColor=none;top=0;left=0;bottom=0;right=0;editable=1;overflow=hidden;rounded=1;shadow=0;glass=0;sketch=1;fontFamily=Fira Code;" parent="282" vertex="1">
                    <mxGeometry width="30" height="30" as="geometry">
                        <mxRectangle width="30" height="30" as="alternateBounds"/>
                    </mxGeometry>
                </mxCell>
                <mxCell id="284" value="amount : number int" style="shape=partialRectangle;connectable=0;fillColor=none;top=0;left=0;bottom=0;right=0;align=left;spacingLeft=6;overflow=hidden;rounded=1;shadow=0;glass=0;sketch=1;fontFamily=Fira Code;" parent="282" vertex="1">
                    <mxGeometry x="30" width="250" height="30" as="geometry">
                        <mxRectangle width="250" height="30" as="alternateBounds"/>
                    </mxGeometry>
                </mxCell>
                <mxCell id="341" value="" style="shape=partialRectangle;collapsible=0;dropTarget=0;pointerEvents=0;fillColor=none;top=0;left=0;bottom=0;right=0;points=[[0,0.5],[1,0.5]];portConstraint=eastwest;rounded=1;shadow=0;glass=0;sketch=1;fontFamily=Fira Code;" parent="269" vertex="1">
                    <mxGeometry y="210" width="280" height="30" as="geometry"/>
                </mxCell>
                <mxCell id="342" value="" style="shape=partialRectangle;connectable=0;fillColor=none;top=0;left=0;bottom=0;right=0;editable=1;overflow=hidden;rounded=1;shadow=0;glass=0;sketch=1;fontFamily=Fira Code;" parent="341" vertex="1">
                    <mxGeometry width="30" height="30" as="geometry">
                        <mxRectangle width="30" height="30" as="alternateBounds"/>
                    </mxGeometry>
                </mxCell>
                <mxCell id="343" value="activated : number int" style="shape=partialRectangle;connectable=0;fillColor=none;top=0;left=0;bottom=0;right=0;align=left;spacingLeft=6;overflow=hidden;rounded=1;shadow=0;glass=0;sketch=1;fontFamily=Fira Code;" parent="341" vertex="1">
                    <mxGeometry x="30" width="250" height="30" as="geometry">
                        <mxRectangle width="250" height="30" as="alternateBounds"/>
                    </mxGeometry>
                </mxCell>
                <mxCell id="285" value="" style="shape=partialRectangle;collapsible=0;dropTarget=0;pointerEvents=0;fillColor=none;top=0;left=0;bottom=0;right=0;points=[[0,0.5],[1,0.5]];portConstraint=eastwest;rounded=1;shadow=0;glass=0;sketch=1;fontFamily=Fira Code;" parent="269" vertex="1">
                    <mxGeometry y="240" width="280" height="30" as="geometry"/>
                </mxCell>
                <mxCell id="286" value="" style="shape=partialRectangle;connectable=0;fillColor=none;top=0;left=0;bottom=0;right=0;editable=1;overflow=hidden;rounded=1;shadow=0;glass=0;sketch=1;fontFamily=Fira Code;" parent="285" vertex="1">
                    <mxGeometry width="30" height="30" as="geometry">
                        <mxRectangle width="30" height="30" as="alternateBounds"/>
                    </mxGeometry>
                </mxCell>
                <mxCell id="287" value="sender : string" style="shape=partialRectangle;connectable=0;fillColor=none;top=0;left=0;bottom=0;right=0;align=left;spacingLeft=6;overflow=hidden;rounded=1;shadow=0;glass=0;sketch=1;fontFamily=Fira Code;" parent="285" vertex="1">
                    <mxGeometry x="30" width="250" height="30" as="geometry">
                        <mxRectangle width="250" height="30" as="alternateBounds"/>
                    </mxGeometry>
                </mxCell>
                <mxCell id="288" value="" style="shape=partialRectangle;collapsible=0;dropTarget=0;pointerEvents=0;fillColor=none;top=0;left=0;bottom=0;right=0;points=[[0,0.5],[1,0.5]];portConstraint=eastwest;rounded=1;shadow=0;glass=0;sketch=1;fontFamily=Fira Code;" parent="269" vertex="1">
                    <mxGeometry y="270" width="280" height="30" as="geometry"/>
                </mxCell>
                <mxCell id="289" value="" style="shape=partialRectangle;connectable=0;fillColor=none;top=0;left=0;bottom=0;right=0;editable=1;overflow=hidden;rounded=1;shadow=0;glass=0;sketch=1;fontFamily=Fira Code;" parent="288" vertex="1">
                    <mxGeometry width="30" height="30" as="geometry">
                        <mxRectangle width="30" height="30" as="alternateBounds"/>
                    </mxGeometry>
                </mxCell>
                <mxCell id="290" value="remark : string" style="shape=partialRectangle;connectable=0;fillColor=none;top=0;left=0;bottom=0;right=0;align=left;spacingLeft=6;overflow=hidden;rounded=1;shadow=0;glass=0;sketch=1;fontFamily=Fira Code;" parent="288" vertex="1">
                    <mxGeometry x="30" width="250" height="30" as="geometry">
                        <mxRectangle width="250" height="30" as="alternateBounds"/>
                    </mxGeometry>
                </mxCell>
                <mxCell id="310" value="" style="shape=partialRectangle;collapsible=0;dropTarget=0;pointerEvents=0;fillColor=none;top=0;left=0;bottom=0;right=0;points=[[0,0.5],[1,0.5]];portConstraint=eastwest;rounded=1;shadow=0;glass=0;sketch=1;fontFamily=Fira Code;" parent="269" vertex="1">
                    <mxGeometry y="300" width="280" height="30" as="geometry"/>
                </mxCell>
                <mxCell id="311" value="" style="shape=partialRectangle;connectable=0;fillColor=none;top=0;left=0;bottom=0;right=0;editable=1;overflow=hidden;rounded=1;shadow=0;glass=0;sketch=1;fontFamily=Fira Code;" parent="310" vertex="1">
                    <mxGeometry width="30" height="30" as="geometry">
                        <mxRectangle width="30" height="30" as="alternateBounds"/>
                    </mxGeometry>
                </mxCell>
                <mxCell id="312" value="agent_id : ObjectId" style="shape=partialRectangle;connectable=0;fillColor=none;top=0;left=0;bottom=0;right=0;align=left;spacingLeft=6;overflow=hidden;rounded=1;shadow=0;glass=0;sketch=1;fontFamily=Fira Code;" parent="310" vertex="1">
                    <mxGeometry x="30" width="250" height="30" as="geometry">
                        <mxRectangle width="250" height="30" as="alternateBounds"/>
                    </mxGeometry>
                </mxCell>
                <mxCell id="313" value="" style="shape=partialRectangle;collapsible=0;dropTarget=0;pointerEvents=0;fillColor=none;top=0;left=0;bottom=0;right=0;points=[[0,0.5],[1,0.5]];portConstraint=eastwest;rounded=1;shadow=0;glass=0;sketch=1;fontFamily=Fira Code;" parent="269" vertex="1">
                    <mxGeometry y="330" width="280" height="30" as="geometry"/>
                </mxCell>
                <mxCell id="314" value="" style="shape=partialRectangle;connectable=0;fillColor=none;top=0;left=0;bottom=0;right=0;editable=1;overflow=hidden;rounded=1;shadow=0;glass=0;sketch=1;fontFamily=Fira Code;" parent="313" vertex="1">
                    <mxGeometry width="30" height="30" as="geometry">
                        <mxRectangle width="30" height="30" as="alternateBounds"/>
                    </mxGeometry>
                </mxCell>
                <mxCell id="315" value="normal col. (cr_by,cr_date...)" style="shape=partialRectangle;connectable=0;fillColor=none;top=0;left=0;bottom=0;right=0;align=left;spacingLeft=6;overflow=hidden;rounded=1;shadow=0;glass=0;sketch=1;fontFamily=Fira Code;" parent="313" vertex="1">
                    <mxGeometry x="30" width="250" height="30" as="geometry">
                        <mxRectangle width="250" height="30" as="alternateBounds"/>
                    </mxGeometry>
                </mxCell>
                <mxCell id="297" style="edgeStyle=orthogonalEdgeStyle;sketch=1;html=1;fontFamily=Fira Code;" parent="1" source="263" target="270" edge="1">
                    <mxGeometry relative="1" as="geometry"/>
                </mxCell>
                <mxCell id="347" value="member" style="shape=table;startSize=30;container=1;collapsible=1;childLayout=tableLayout;fixedRows=1;rowLines=0;fontStyle=1;align=center;resizeLast=1;rounded=1;shadow=0;glass=0;sketch=1;fontFamily=Fira Code;" parent="1" vertex="1">
                    <mxGeometry x="880" y="920" width="280" height="130" as="geometry"/>
                </mxCell>
                <mxCell id="348" value="" style="shape=partialRectangle;collapsible=0;dropTarget=0;pointerEvents=0;fillColor=none;top=0;left=0;bottom=1;right=0;points=[[0,0.5],[1,0.5]];portConstraint=eastwest;rounded=1;shadow=0;glass=0;sketch=1;fontFamily=Fira Code;" parent="347" vertex="1">
                    <mxGeometry y="30" width="280" height="30" as="geometry"/>
                </mxCell>
                <mxCell id="349" value="PK" style="shape=partialRectangle;connectable=0;fillColor=none;top=0;left=0;bottom=0;right=0;fontStyle=1;overflow=hidden;rounded=1;shadow=0;glass=0;sketch=1;fontFamily=Fira Code;" parent="348" vertex="1">
                    <mxGeometry width="30" height="30" as="geometry">
                        <mxRectangle width="30" height="30" as="alternateBounds"/>
                    </mxGeometry>
                </mxCell>
                <mxCell id="350" value="_id" style="shape=partialRectangle;connectable=0;fillColor=none;top=0;left=0;bottom=0;right=0;align=left;spacingLeft=6;fontStyle=5;overflow=hidden;rounded=1;shadow=0;glass=0;sketch=1;fontFamily=Fira Code;" parent="348" vertex="1">
                    <mxGeometry x="30" width="250" height="30" as="geometry">
                        <mxRectangle width="250" height="30" as="alternateBounds"/>
                    </mxGeometry>
                </mxCell>
                <mxCell id="354" value="" style="shape=partialRectangle;collapsible=0;dropTarget=0;pointerEvents=0;fillColor=none;top=0;left=0;bottom=0;right=0;points=[[0,0.5],[1,0.5]];portConstraint=eastwest;rounded=1;shadow=0;glass=0;sketch=1;fontFamily=Fira Code;" parent="347" vertex="1">
                    <mxGeometry y="60" width="280" height="30" as="geometry"/>
                </mxCell>
                <mxCell id="355" value="" style="shape=partialRectangle;connectable=0;fillColor=none;top=0;left=0;bottom=0;right=0;editable=1;overflow=hidden;rounded=1;shadow=0;glass=0;sketch=1;fontFamily=Fira Code;" parent="354" vertex="1">
                    <mxGeometry width="30" height="30" as="geometry">
                        <mxRectangle width="30" height="30" as="alternateBounds"/>
                    </mxGeometry>
                </mxCell>
                <mxCell id="356" value="now_promotion : ObjectId" style="shape=partialRectangle;connectable=0;fillColor=none;top=0;left=0;bottom=0;right=0;align=left;spacingLeft=6;overflow=hidden;rounded=1;shadow=0;glass=0;sketch=1;fontFamily=Fira Code;" parent="354" vertex="1">
                    <mxGeometry x="30" width="250" height="30" as="geometry">
                        <mxRectangle width="250" height="30" as="alternateBounds"/>
                    </mxGeometry>
                </mxCell>
                <mxCell id="357" value="" style="shape=partialRectangle;collapsible=0;dropTarget=0;pointerEvents=0;fillColor=none;top=0;left=0;bottom=0;right=0;points=[[0,0.5],[1,0.5]];portConstraint=eastwest;rounded=1;shadow=0;glass=0;sketch=1;fontFamily=Fira Code;" parent="347" vertex="1">
                    <mxGeometry y="90" width="280" height="30" as="geometry"/>
                </mxCell>
                <mxCell id="358" value="" style="shape=partialRectangle;connectable=0;fillColor=none;top=0;left=0;bottom=0;right=0;editable=1;overflow=hidden;rounded=1;shadow=0;glass=0;sketch=1;fontFamily=Fira Code;" parent="357" vertex="1">
                    <mxGeometry width="30" height="30" as="geometry">
                        <mxRectangle width="30" height="30" as="alternateBounds"/>
                    </mxGeometry>
                </mxCell>
                <mxCell id="359" value="reg_pro_recv : string (1/0)" style="shape=partialRectangle;connectable=0;fillColor=none;top=0;left=0;bottom=0;right=0;align=left;spacingLeft=6;overflow=hidden;rounded=1;shadow=0;glass=0;sketch=1;fontFamily=Fira Code;" parent="357" vertex="1">
                    <mxGeometry x="30" width="250" height="30" as="geometry">
                        <mxRectangle width="250" height="30" as="alternateBounds"/>
                    </mxGeometry>
                </mxCell>
                <mxCell id="377" value="" style="edgeStyle=none;html=1;" parent="1" source="375" target="376" edge="1">
                    <mxGeometry relative="1" as="geometry"/>
                </mxCell>
                <mxCell id="375" value="Member" style="shape=umlActor;verticalLabelPosition=bottom;verticalAlign=top;html=1;outlineConnect=0;" parent="1" vertex="1">
                    <mxGeometry x="1950" y="-40" width="30" height="60" as="geometry"/>
                </mxCell>
                <mxCell id="381" value="" style="edgeStyle=none;html=1;fontFamily=Fira Code;fontSize=14;" parent="1" source="376" target="380" edge="1">
                    <mxGeometry relative="1" as="geometry"/>
                </mxCell>
                <mxCell id="376" value="login" style="whiteSpace=wrap;html=1;verticalAlign=middle;fontFamily=Fira Code;fontSize=14;" parent="1" vertex="1">
                    <mxGeometry x="2015" y="-40" width="120" height="60" as="geometry"/>
                </mxCell>
                <mxCell id="378" value="&lt;h1&gt;Promotion 2&lt;br&gt;&lt;/h1&gt;&lt;div&gt;1. type register&lt;/div&gt;&lt;div&gt;2. member&lt;/div&gt;" style="text;html=1;strokeColor=none;fillColor=none;spacing=5;spacingTop=-20;whiteSpace=wrap;overflow=hidden;rounded=0;fontFamily=Fira Code;fontSize=14;" parent="1" vertex="1">
                    <mxGeometry x="1880" y="282" width="400" height="120" as="geometry"/>
                </mxCell>
                <mxCell id="383" value="" style="edgeStyle=none;html=1;fontFamily=Fira Code;fontSize=14;" parent="1" source="380" target="382" edge="1">
                    <mxGeometry relative="1" as="geometry"/>
                </mxCell>
                <mxCell id="380" value="input coupon" style="whiteSpace=wrap;html=1;fontSize=14;fontFamily=Fira Code;" parent="1" vertex="1">
                    <mxGeometry x="2215" y="-40" width="120" height="60" as="geometry"/>
                </mxCell>
                <mxCell id="391" value="" style="edgeStyle=none;html=1;fontFamily=Fira Code;fontSize=14;" parent="1" source="382" target="390" edge="1">
                    <mxGeometry relative="1" as="geometry"/>
                </mxCell>
                <mxCell id="433" style="edgeStyle=none;html=1;fontFamily=Fira Code;fontSize=14;" parent="1" source="382" target="431" edge="1">
                    <mxGeometry relative="1" as="geometry"/>
                </mxCell>
                <mxCell id="382" value="system check" style="whiteSpace=wrap;html=1;fontSize=14;fontFamily=Fira Code;" parent="1" vertex="1">
                    <mxGeometry x="2415" y="-40" width="120" height="60" as="geometry"/>
                </mxCell>
                <mxCell id="389" style="edgeStyle=none;html=1;fontFamily=Fira Code;fontSize=14;" parent="1" source="384" target="382" edge="1">
                    <mxGeometry relative="1" as="geometry"/>
                </mxCell>
                <mxCell id="384" value="List" style="swimlane;fontStyle=0;childLayout=stackLayout;horizontal=1;startSize=30;horizontalStack=0;resizeParent=1;resizeParentMax=0;resizeLast=0;collapsible=1;marginBottom=0;fontFamily=Fira Code;fontSize=14;" parent="1" vertex="1">
                    <mxGeometry x="2405" y="75" width="140" height="150" as="geometry"/>
                </mxCell>
                <mxCell id="385" value="correcly" style="text;strokeColor=none;fillColor=none;align=left;verticalAlign=middle;spacingLeft=4;spacingRight=4;overflow=hidden;points=[[0,0.5],[1,0.5]];portConstraint=eastwest;rotatable=0;fontFamily=Fira Code;fontSize=14;" parent="384" vertex="1">
                    <mxGeometry y="30" width="140" height="30" as="geometry"/>
                </mxCell>
                <mxCell id="386" value="member limit " style="text;strokeColor=none;fillColor=none;align=left;verticalAlign=middle;spacingLeft=4;spacingRight=4;overflow=hidden;points=[[0,0.5],[1,0.5]];portConstraint=eastwest;rotatable=0;fontFamily=Fira Code;fontSize=14;" parent="384" vertex="1">
                    <mxGeometry y="60" width="140" height="30" as="geometry"/>
                </mxCell>
                <mxCell id="387" value="coupon limit" style="text;strokeColor=none;fillColor=none;align=left;verticalAlign=middle;spacingLeft=4;spacingRight=4;overflow=hidden;points=[[0,0.5],[1,0.5]];portConstraint=eastwest;rotatable=0;fontFamily=Fira Code;fontSize=14;" parent="384" vertex="1">
                    <mxGeometry y="90" width="140" height="30" as="geometry"/>
                </mxCell>
                <mxCell id="388" value="status pro" style="text;strokeColor=none;fillColor=none;align=left;verticalAlign=middle;spacingLeft=4;spacingRight=4;overflow=hidden;points=[[0,0.5],[1,0.5]];portConstraint=eastwest;rotatable=0;fontFamily=Fira Code;fontSize=14;" parent="384" vertex="1">
                    <mxGeometry y="120" width="140" height="30" as="geometry"/>
                </mxCell>
                <mxCell id="393" value="" style="edgeStyle=none;html=1;fontFamily=Fira Code;fontSize=14;" parent="1" source="390" target="392" edge="1">
                    <mxGeometry relative="1" as="geometry"/>
                </mxCell>
                <mxCell id="390" value="add bonus" style="whiteSpace=wrap;html=1;fontSize=14;fontFamily=Fira Code;" parent="1" vertex="1">
                    <mxGeometry x="2615" y="-40" width="120" height="60" as="geometry"/>
                </mxCell>
                <mxCell id="395" value="" style="edgeStyle=none;html=1;fontFamily=Fira Code;fontSize=14;" parent="1" source="392" target="394" edge="1">
                    <mxGeometry relative="1" as="geometry"/>
                </mxCell>
                <mxCell id="392" value="add turn" style="whiteSpace=wrap;html=1;fontSize=14;fontFamily=Fira Code;" parent="1" vertex="1">
                    <mxGeometry x="2815" y="-40" width="120" height="60" as="geometry"/>
                </mxCell>
                <mxCell id="394" value="upd now_promotion" style="whiteSpace=wrap;html=1;fontSize=14;fontFamily=Fira Code;" parent="1" vertex="1">
                    <mxGeometry x="3015" y="-40" width="120" height="60" as="geometry"/>
                </mxCell>
                <mxCell id="396" value="&lt;h1&gt;Promotion 1&lt;br&gt;&lt;/h1&gt;&lt;div&gt;1. type free bonus&lt;/div&gt;&lt;div&gt;2. coupon&lt;/div&gt;" style="text;html=1;strokeColor=none;fillColor=none;spacing=5;spacingTop=-20;whiteSpace=wrap;overflow=hidden;rounded=0;fontFamily=Fira Code;fontSize=14;" parent="1" vertex="1">
                    <mxGeometry x="2220" y="-200" width="400" height="120" as="geometry"/>
                </mxCell>
                <mxCell id="397" value="" style="edgeStyle=none;html=1;" parent="1" source="398" target="400" edge="1">
                    <mxGeometry relative="1" as="geometry"/>
                </mxCell>
                <mxCell id="398" value="Member" style="shape=umlActor;verticalLabelPosition=bottom;verticalAlign=top;html=1;outlineConnect=0;" parent="1" vertex="1">
                    <mxGeometry x="1790" y="480" width="30" height="60" as="geometry"/>
                </mxCell>
                <mxCell id="399" value="" style="edgeStyle=none;html=1;fontFamily=Fira Code;fontSize=14;" parent="1" source="400" target="402" edge="1">
                    <mxGeometry relative="1" as="geometry"/>
                </mxCell>
                <mxCell id="400" value="login" style="whiteSpace=wrap;html=1;verticalAlign=middle;fontFamily=Fira Code;fontSize=14;" parent="1" vertex="1">
                    <mxGeometry x="1855" y="480" width="120" height="60" as="geometry"/>
                </mxCell>
                <mxCell id="417" value="" style="edgeStyle=none;html=1;fontFamily=Fira Code;fontSize=14;" parent="1" source="402" target="416" edge="1">
                    <mxGeometry relative="1" as="geometry"/>
                </mxCell>
                <mxCell id="402" value="view promotion" style="whiteSpace=wrap;html=1;fontSize=14;fontFamily=Fira Code;" parent="1" vertex="1">
                    <mxGeometry x="2055" y="480" width="120" height="60" as="geometry"/>
                </mxCell>
                <mxCell id="421" value="" style="edgeStyle=none;html=1;fontFamily=Fira Code;fontSize=14;" parent="1" source="404" target="420" edge="1">
                    <mxGeometry relative="1" as="geometry"/>
                </mxCell>
                <mxCell id="404" value="system check" style="whiteSpace=wrap;html=1;fontSize=14;fontFamily=Fira Code;" parent="1" vertex="1">
                    <mxGeometry x="2465" y="480" width="120" height="60" as="geometry"/>
                </mxCell>
                <mxCell id="405" style="edgeStyle=none;html=1;fontFamily=Fira Code;fontSize=14;" parent="1" target="404" edge="1">
                    <mxGeometry relative="1" as="geometry">
                        <mxPoint x="2525" y="595" as="sourcePoint"/>
                    </mxGeometry>
                </mxCell>
                <mxCell id="406" value="List" style="swimlane;fontStyle=0;childLayout=stackLayout;horizontal=1;startSize=30;horizontalStack=0;resizeParent=1;resizeParentMax=0;resizeLast=0;collapsible=1;marginBottom=0;fontFamily=Fira Code;fontSize=14;" parent="1" vertex="1">
                    <mxGeometry x="2455" y="600" width="140" height="150" as="geometry"/>
                </mxCell>
                <mxCell id="407" value="correcly" style="text;strokeColor=none;fillColor=none;align=left;verticalAlign=middle;spacingLeft=4;spacingRight=4;overflow=hidden;points=[[0,0.5],[1,0.5]];portConstraint=eastwest;rotatable=0;fontFamily=Fira Code;fontSize=14;" parent="406" vertex="1">
                    <mxGeometry y="30" width="140" height="30" as="geometry"/>
                </mxCell>
                <mxCell id="408" value="limit" style="text;strokeColor=none;fillColor=none;align=left;verticalAlign=middle;spacingLeft=4;spacingRight=4;overflow=hidden;points=[[0,0.5],[1,0.5]];portConstraint=eastwest;rotatable=0;fontFamily=Fira Code;fontSize=14;" parent="406" vertex="1">
                    <mxGeometry y="60" width="140" height="30" as="geometry"/>
                </mxCell>
                <mxCell id="410" value="status pro" style="text;strokeColor=none;fillColor=none;align=left;verticalAlign=middle;spacingLeft=4;spacingRight=4;overflow=hidden;points=[[0,0.5],[1,0.5]];portConstraint=eastwest;rotatable=0;fontFamily=Fira Code;fontSize=14;" parent="406" vertex="1">
                    <mxGeometry y="90" width="140" height="30" as="geometry"/>
                </mxCell>
                <mxCell id="419" value="reg_pro_recv" style="text;strokeColor=none;fillColor=none;align=left;verticalAlign=middle;spacingLeft=4;spacingRight=4;overflow=hidden;points=[[0,0.5],[1,0.5]];portConstraint=eastwest;rotatable=0;fontFamily=Fira Code;fontSize=14;" parent="406" vertex="1">
                    <mxGeometry y="120" width="140" height="30" as="geometry"/>
                </mxCell>
                <mxCell id="411" value="" style="edgeStyle=none;html=1;fontFamily=Fira Code;fontSize=14;" parent="1" source="412" target="414" edge="1">
                    <mxGeometry relative="1" as="geometry"/>
                </mxCell>
                <mxCell id="412" value="add bonus" style="whiteSpace=wrap;html=1;fontSize=14;fontFamily=Fira Code;" parent="1" vertex="1">
                    <mxGeometry x="2860" y="480" width="120" height="60" as="geometry"/>
                </mxCell>
                <mxCell id="413" value="" style="edgeStyle=none;html=1;fontFamily=Fira Code;fontSize=14;" parent="1" source="414" target="415" edge="1">
                    <mxGeometry relative="1" as="geometry"/>
                </mxCell>
                <mxCell id="414" value="add turn" style="whiteSpace=wrap;html=1;fontSize=14;fontFamily=Fira Code;" parent="1" vertex="1">
                    <mxGeometry x="3060" y="480" width="120" height="60" as="geometry"/>
                </mxCell>
                <mxCell id="415" value="upd now_promotion" style="whiteSpace=wrap;html=1;fontSize=14;fontFamily=Fira Code;" parent="1" vertex="1">
                    <mxGeometry x="3260" y="480" width="120" height="60" as="geometry"/>
                </mxCell>
                <mxCell id="418" style="edgeStyle=none;html=1;fontFamily=Fira Code;fontSize=14;" parent="1" source="416" target="404" edge="1">
                    <mxGeometry relative="1" as="geometry"/>
                </mxCell>
                <mxCell id="416" value="select reg pro" style="whiteSpace=wrap;html=1;fontSize=14;fontFamily=Fira Code;" parent="1" vertex="1">
                    <mxGeometry x="2255" y="480" width="120" height="60" as="geometry"/>
                </mxCell>
                <mxCell id="422" style="edgeStyle=none;html=1;fontFamily=Fira Code;fontSize=14;" parent="1" source="420" target="412" edge="1">
                    <mxGeometry relative="1" as="geometry"/>
                </mxCell>
                <mxCell id="425" value="" style="edgeStyle=none;html=1;fontFamily=Fira Code;fontSize=14;" parent="1" source="420" target="424" edge="1">
                    <mxGeometry relative="1" as="geometry"/>
                </mxCell>
                <mxCell id="420" value="create previ" style="whiteSpace=wrap;html=1;fontSize=14;fontFamily=Fira Code;" parent="1" vertex="1">
                    <mxGeometry x="2640" y="480" width="120" height="60" as="geometry"/>
                </mxCell>
                <mxCell id="428" value="" style="edgeStyle=none;html=1;fontFamily=Fira Code;fontSize=14;" parent="1" source="424" target="427" edge="1">
                    <mxGeometry relative="1" as="geometry"/>
                </mxCell>
                <mxCell id="424" value="update status previ &quot;wait deposit&quot;" style="whiteSpace=wrap;html=1;fontSize=14;fontFamily=Fira Code;" parent="1" vertex="1">
                    <mxGeometry x="2760" y="660" width="120" height="60" as="geometry"/>
                </mxCell>
                <mxCell id="429" style="edgeStyle=none;html=1;fontFamily=Fira Code;fontSize=14;" parent="1" source="427" target="412" edge="1">
                    <mxGeometry relative="1" as="geometry"/>
                </mxCell>
                <mxCell id="427" value="cron deposit+promotion" style="whiteSpace=wrap;html=1;fontSize=14;fontFamily=Fira Code;" parent="1" vertex="1">
                    <mxGeometry x="2960" y="660" width="120" height="60" as="geometry"/>
                </mxCell>
                <mxCell id="430" value="" style="edgeStyle=none;html=1;fontFamily=Fira Code;fontSize=14;" parent="1" source="431" target="432" edge="1">
                    <mxGeometry relative="1" as="geometry"/>
                </mxCell>
                <mxCell id="431" value="update status previ &quot;wait deposit&quot;" style="whiteSpace=wrap;html=1;fontSize=14;fontFamily=Fira Code;" parent="1" vertex="1">
                    <mxGeometry x="2680" y="120" width="120" height="60" as="geometry"/>
                </mxCell>
                <mxCell id="434" style="edgeStyle=none;html=1;fontFamily=Fira Code;fontSize=14;" parent="1" source="432" target="390" edge="1">
                    <mxGeometry relative="1" as="geometry"/>
                </mxCell>
                <mxCell id="432" value="cron deposit+promotion" style="whiteSpace=wrap;html=1;fontSize=14;fontFamily=Fira Code;" parent="1" vertex="1">
                    <mxGeometry x="2880" y="120" width="120" height="60" as="geometry"/>
                </mxCell>
                <mxCell id="435" value="deposit type" style="text;html=1;strokeColor=none;fillColor=none;align=center;verticalAlign=middle;whiteSpace=wrap;rounded=0;fontFamily=Fira Code;fontSize=14;" parent="1" vertex="1">
                    <mxGeometry x="2760" y="195" width="160" height="30" as="geometry"/>
                </mxCell>
                <mxCell id="436" value="deposit type" style="text;html=1;strokeColor=none;fillColor=none;align=center;verticalAlign=middle;whiteSpace=wrap;rounded=0;fontFamily=Fira Code;fontSize=14;" parent="1" vertex="1">
                    <mxGeometry x="2850" y="750" width="160" height="30" as="geometry"/>
                </mxCell>
                <mxCell id="441" value="" style="edgeStyle=none;html=1;fontFamily=Fira Code;fontSize=24;" parent="1" source="437" target="440" edge="1">
                    <mxGeometry relative="1" as="geometry"/>
                </mxCell>
                <mxCell id="437" value="Staff" style="shape=umlActor;verticalLabelPosition=bottom;verticalAlign=top;html=1;outlineConnect=0;fontFamily=Fira Code;fontSize=14;" parent="1" vertex="1">
                    <mxGeometry x="1880" y="995" width="30" height="60" as="geometry"/>
                </mxCell>
                <mxCell id="438" value="Coupon generation" style="text;html=1;strokeColor=none;fillColor=none;align=center;verticalAlign=middle;whiteSpace=wrap;rounded=0;fontFamily=Fira Code;fontSize=24;" parent="1" vertex="1">
                    <mxGeometry x="1740" y="940" width="350" height="30" as="geometry"/>
                </mxCell>
                <mxCell id="443" value="" style="edgeStyle=none;html=1;fontFamily=Fira Code;fontSize=24;" parent="1" source="440" target="442" edge="1">
                    <mxGeometry relative="1" as="geometry"/>
                </mxCell>
                <mxCell id="440" value="search promotion" style="whiteSpace=wrap;html=1;fontSize=14;fontFamily=Fira Code;verticalAlign=top;" parent="1" vertex="1">
                    <mxGeometry x="2050" y="995" width="120" height="60" as="geometry"/>
                </mxCell>
                <mxCell id="445" value="" style="edgeStyle=none;html=1;fontFamily=Fira Code;fontSize=24;" parent="1" source="442" target="444" edge="1">
                    <mxGeometry relative="1" as="geometry"/>
                </mxCell>
                <mxCell id="442" value="select action coupon generator" style="whiteSpace=wrap;html=1;fontSize=14;fontFamily=Fira Code;verticalAlign=top;" parent="1" vertex="1">
                    <mxGeometry x="2250" y="995" width="120" height="60" as="geometry"/>
                </mxCell>
                <mxCell id="447" value="" style="edgeStyle=none;html=1;fontFamily=Fira Code;fontSize=24;" parent="1" source="444" target="446" edge="1">
                    <mxGeometry relative="1" as="geometry"/>
                </mxCell>
                <mxCell id="444" value="input data&lt;br&gt;and save" style="whiteSpace=wrap;html=1;fontSize=14;fontFamily=Fira Code;verticalAlign=top;" parent="1" vertex="1">
                    <mxGeometry x="2450" y="995" width="120" height="60" as="geometry"/>
                </mxCell>
                <mxCell id="449" value="" style="edgeStyle=none;html=1;fontFamily=Fira Code;fontSize=24;" parent="1" source="446" target="448" edge="1">
                    <mxGeometry relative="1" as="geometry"/>
                </mxCell>
                <mxCell id="446" value="click confirm&lt;br&gt;" style="whiteSpace=wrap;html=1;fontSize=14;fontFamily=Fira Code;verticalAlign=top;" parent="1" vertex="1">
                    <mxGeometry x="2650" y="995" width="120" height="60" as="geometry"/>
                </mxCell>
                <mxCell id="451" value="" style="edgeStyle=none;html=1;fontFamily=Fira Code;fontSize=24;" parent="1" source="448" target="450" edge="1">
                    <mxGeometry relative="1" as="geometry"/>
                </mxCell>
                <mxCell id="458" value="" style="edgeStyle=none;html=1;fontFamily=Fira Code;fontSize=24;" parent="1" source="448" target="457" edge="1">
                    <mxGeometry relative="1" as="geometry"/>
                </mxCell>
                <mxCell id="448" value="send request to API" style="whiteSpace=wrap;html=1;fontSize=14;fontFamily=Fira Code;verticalAlign=top;" parent="1" vertex="1">
                    <mxGeometry x="2850" y="995" width="120" height="60" as="geometry"/>
                </mxCell>
                <mxCell id="453" value="" style="edgeStyle=none;html=1;fontFamily=Fira Code;fontSize=24;" parent="1" source="450" target="452" edge="1">
                    <mxGeometry relative="1" as="geometry"/>
                </mxCell>
                <mxCell id="450" value="create coupon_request" style="whiteSpace=wrap;html=1;fontSize=14;fontFamily=Fira Code;verticalAlign=top;" parent="1" vertex="1">
                    <mxGeometry x="2850" y="1135" width="120" height="60" as="geometry"/>
                </mxCell>
                <mxCell id="455" value="" style="edgeStyle=none;html=1;fontFamily=Fira Code;fontSize=24;" parent="1" source="452" target="454" edge="1">
                    <mxGeometry relative="1" as="geometry"/>
                </mxCell>
                <mxCell id="452" value="create previlege by amount" style="whiteSpace=wrap;html=1;fontSize=14;fontFamily=Fira Code;verticalAlign=top;" parent="1" vertex="1">
                    <mxGeometry x="2850" y="1275" width="120" height="60" as="geometry"/>
                </mxCell>
                <mxCell id="456" style="edgeStyle=none;html=1;fontFamily=Fira Code;fontSize=24;" parent="1" source="454" target="448" edge="1">
                    <mxGeometry relative="1" as="geometry">
                        <Array as="points">
                            <mxPoint x="3070" y="1250"/>
                        </Array>
                    </mxGeometry>
                </mxCell>
                <mxCell id="454" value="get all _id" style="whiteSpace=wrap;html=1;fontSize=14;fontFamily=Fira Code;verticalAlign=top;" parent="1" vertex="1">
                    <mxGeometry x="2850" y="1415" width="120" height="60" as="geometry"/>
                </mxCell>
                <mxCell id="460" value="" style="edgeStyle=none;html=1;fontFamily=Fira Code;fontSize=24;" parent="1" source="457" target="459" edge="1">
                    <mxGeometry relative="1" as="geometry"/>
                </mxCell>
                <mxCell id="457" value="response _id" style="whiteSpace=wrap;html=1;fontSize=14;fontFamily=Fira Code;verticalAlign=top;" parent="1" vertex="1">
                    <mxGeometry x="3050" y="995" width="120" height="60" as="geometry"/>
                </mxCell>
                <mxCell id="459" value="download xls" style="whiteSpace=wrap;html=1;fontSize=14;fontFamily=Fira Code;verticalAlign=top;" parent="1" vertex="1">
                    <mxGeometry x="3250" y="995" width="120" height="60" as="geometry"/>
                </mxCell>
                <mxCell id="461" value="table request of coupon" style="swimlane;fontFamily=Fira Code;fontSize=12;fontStyle=0" parent="1" vertex="1">
                    <mxGeometry x="-100" y="1195" width="200" height="265" as="geometry"/>
                </mxCell>
                <mxCell id="462" value="request_id" style="text;html=1;strokeColor=none;fillColor=none;align=center;verticalAlign=middle;whiteSpace=wrap;rounded=0;fontFamily=Fira Code;fontSize=12;" parent="461" vertex="1">
                    <mxGeometry x="20" y="35" width="60" height="30" as="geometry"/>
                </mxCell>
                <mxCell id="463" value="request_date" style="text;html=1;strokeColor=none;fillColor=none;align=center;verticalAlign=middle;whiteSpace=wrap;rounded=0;fontFamily=Fira Code;fontSize=12;" parent="461" vertex="1">
                    <mxGeometry x="30" y="65" width="60" height="30" as="geometry"/>
                </mxCell>
                <mxCell id="464" value="amount of coupon" style="text;html=1;strokeColor=none;fillColor=none;align=center;verticalAlign=middle;whiteSpace=wrap;rounded=0;fontFamily=Fira Code;fontSize=12;" parent="461" vertex="1">
                    <mxGeometry x="5" y="95" width="140" height="30" as="geometry"/>
                </mxCell>
                <mxCell id="465" value="activate of coupon" style="text;html=1;strokeColor=none;fillColor=none;align=center;verticalAlign=middle;whiteSpace=wrap;rounded=0;fontFamily=Fira Code;fontSize=12;" parent="461" vertex="1">
                    <mxGeometry x="5" y="125" width="150" height="30" as="geometry"/>
                </mxCell>
                <mxCell id="466" value="sender" style="text;html=1;strokeColor=none;fillColor=none;align=center;verticalAlign=middle;whiteSpace=wrap;rounded=0;fontFamily=Fira Code;fontSize=12;" parent="461" vertex="1">
                    <mxGeometry x="15" y="155" width="150" height="30" as="geometry"/>
                </mxCell>
                <mxCell id="467" value="remark" style="text;html=1;strokeColor=none;fillColor=none;align=center;verticalAlign=middle;whiteSpace=wrap;rounded=0;fontFamily=Fira Code;fontSize=12;" parent="461" vertex="1">
                    <mxGeometry x="20" y="185" width="150" height="30" as="geometry"/>
                </mxCell>
                <mxCell id="468" value="action to view all coupon" style="text;html=1;strokeColor=none;fillColor=none;align=center;verticalAlign=middle;whiteSpace=wrap;rounded=0;fontFamily=Fira Code;fontSize=12;" parent="461" vertex="1">
                    <mxGeometry x="15" y="225" width="150" height="30" as="geometry"/>
                </mxCell>
                <mxCell id="469" style="edgeStyle=none;html=1;fontFamily=Fira Code;fontSize=12;" parent="1" source="468" target="470" edge="1">
                    <mxGeometry relative="1" as="geometry">
                        <mxPoint x="260" y="1435" as="targetPoint"/>
                    </mxGeometry>
                </mxCell>
                <mxCell id="470" value="table list all coupon" style="swimlane;fontStyle=0;childLayout=stackLayout;horizontal=1;startSize=30;horizontalStack=0;resizeParent=1;resizeParentMax=0;resizeLast=0;collapsible=1;marginBottom=0;fontFamily=Fira Code;fontSize=12;" parent="1" vertex="1">
                    <mxGeometry x="280" y="1200" width="270" height="180" as="geometry"/>
                </mxCell>
                <mxCell id="471" value="_id" style="text;strokeColor=none;fillColor=none;align=left;verticalAlign=middle;spacingLeft=4;spacingRight=4;overflow=hidden;points=[[0,0.5],[1,0.5]];portConstraint=eastwest;rotatable=0;fontFamily=Fira Code;fontSize=12;" parent="470" vertex="1">
                    <mxGeometry y="30" width="270" height="30" as="geometry"/>
                </mxCell>
                <mxCell id="472" value="member" style="text;strokeColor=none;fillColor=none;align=left;verticalAlign=middle;spacingLeft=4;spacingRight=4;overflow=hidden;points=[[0,0.5],[1,0.5]];portConstraint=eastwest;rotatable=0;fontFamily=Fira Code;fontSize=12;" parent="470" vertex="1">
                    <mxGeometry y="60" width="270" height="30" as="geometry"/>
                </mxCell>
                <mxCell id="473" value="status" style="text;strokeColor=none;fillColor=none;align=left;verticalAlign=middle;spacingLeft=4;spacingRight=4;overflow=hidden;points=[[0,0.5],[1,0.5]];portConstraint=eastwest;rotatable=0;fontFamily=Fira Code;fontSize=12;" parent="470" vertex="1">
                    <mxGeometry y="90" width="270" height="30" as="geometry"/>
                </mxCell>
                <mxCell id="474" value="cr_date" style="text;strokeColor=none;fillColor=none;align=left;verticalAlign=middle;spacingLeft=4;spacingRight=4;overflow=hidden;points=[[0,0.5],[1,0.5]];portConstraint=eastwest;rotatable=0;fontFamily=Fira Code;fontSize=12;" parent="470" vertex="1">
                    <mxGeometry y="120" width="270" height="30" as="geometry"/>
                </mxCell>
                <mxCell id="475" value="receive date" style="text;strokeColor=none;fillColor=none;align=left;verticalAlign=middle;spacingLeft=4;spacingRight=4;overflow=hidden;points=[[0,0.5],[1,0.5]];portConstraint=eastwest;rotatable=0;fontFamily=Fira Code;fontSize=12;" parent="470" vertex="1">
                    <mxGeometry y="150" width="270" height="30" as="geometry"/>
                </mxCell>
            </root>
        </mxGraphModel>
    </diagram>
</mxfile>